{"glyphs":{"0":{"ha":828,"x_min":72,"x_max":754,"o":"m 549 4 q 520 -7 549 4 q 414 -18 492 -18 q 278 4 336 -18 q 172 81 221 26 q 72 486 72 190 q 172 892 72 781 q 278 967 221 944 q 414 989 336 989 q 549 967 492 989 q 656 892 607 944 q 754 486 754 782 q 656 81 754 189 q 549 4 607 26 m 239 489 q 281 200 239 278 q 415 122 322 122 q 548 199 507 122 q 589 454 589 275 q 567 715 589 633 q 509 823 544 797 q 413 849 474 849 q 317 822 353 849 q 239 489 239 764 z "},"1":{"ha":740,"x_min":49,"x_max":707,"o":"m 101 0 l 101 139 l 338 136 l 346 807 l 339 807 l 154 615 l 49 721 l 339 981 l 500 969 l 500 136 l 707 139 l 707 0 l 101 0 z "},"2":{"ha":785,"x_min":60,"x_max":707,"o":"m 71 0 l 71 121 q 278 355 164 219 q 422 529 392 490 q 487 635 451 568 q 522 754 522 703 q 418 844 522 844 q 276 815 357 844 q 126 743 194 786 l 60 864 q 203 948 111 907 q 392 989 296 989 q 603 922 521 989 q 686 742 686 854 q 640 577 686 661 q 514 394 593 493 l 306 142 l 306 133 l 707 142 l 707 0 l 71 0 z "},"3":{"ha":732,"x_min":11,"x_max":657,"o":"m 358 124 q 458 158 431 124 q 486 279 486 192 q 447 406 486 367 q 317 446 407 446 l 164 446 l 164 578 q 396 610 351 593 q 461 717 461 633 q 430 824 461 800 q 313 849 399 849 q 82 831 226 849 l 63 961 q 304 989 174 989 q 626 736 626 989 q 494 525 626 582 l 494 518 q 657 278 657 474 q 580 65 657 147 q 339 -18 503 -18 q 178 4 260 -18 q 53 49 96 26 l 11 71 l 65 190 q 358 124 235 124 z "},"4":{"ha":778,"x_min":29,"x_max":721,"o":"m 29 211 l 29 322 l 258 988 l 414 967 l 201 349 l 201 342 l 472 349 l 508 708 l 631 708 l 631 351 l 721 354 l 721 211 l 631 211 l 632 0 l 469 0 l 472 211 l 29 211 z "},"5":{"ha":740,"x_min":28,"x_max":672,"o":"m 374 124 q 476 161 447 124 q 504 292 504 199 q 465 420 504 385 q 229 456 426 456 l 96 453 l 172 971 l 629 971 l 629 833 l 307 839 l 272 593 q 433 574 367 588 q 556 528 499 560 q 672 294 672 465 q 588 65 672 147 q 356 -18 503 -18 q 192 8 274 -18 q 69 61 110 35 l 28 88 l 81 207 q 374 124 250 124 z "},"6":{"ha":799,"x_min":72,"x_max":725,"o":"m 644 817 q 431 846 525 846 q 297 796 338 846 q 244 590 256 746 q 371 597 315 597 q 634 528 543 597 q 725 304 725 460 q 640 65 725 149 q 399 -18 556 -18 q 158 93 243 -18 q 72 461 72 204 q 188 886 72 768 q 308 965 243 942 q 444 989 374 989 q 653 958 569 989 l 681 947 l 644 817 m 240 353 q 292 150 240 197 q 415 118 331 118 q 533 158 500 118 q 565 295 565 199 q 532 426 565 392 q 400 460 499 460 q 240 446 332 460 l 240 353 z "},"7":{"ha":714,"x_min":38,"x_max":678,"o":"m 38 971 l 678 971 l 678 871 l 272 -11 l 101 3 l 507 831 l 507 839 l 38 829 l 38 971 z "},"8":{"ha":782,"x_min":54,"x_max":726,"o":"m 89 738 q 167 919 89 850 q 390 989 244 989 q 614 918 536 989 q 692 736 692 847 q 556 501 692 586 q 726 261 726 410 q 633 64 726 146 q 385 -18 540 -18 q 142 69 231 -18 q 54 272 54 156 q 99 416 54 351 q 207 513 144 481 q 89 738 89 599 m 224 267 q 391 119 224 119 q 558 251 558 119 q 513 361 558 321 q 351 440 468 401 q 255 377 286 415 q 224 267 224 339 m 531 729 q 390 858 531 858 q 249 743 249 858 q 286 641 249 682 q 413 564 324 600 q 531 729 531 610 z "},"9":{"ha":796,"x_min":72,"x_max":722,"o":"m 394 119 q 489 149 460 119 q 553 392 549 206 q 386 375 461 375 q 156 448 239 375 q 72 671 72 521 q 156 905 72 821 q 395 989 240 989 q 636 876 550 989 q 722 503 722 764 q 642 113 722 243 q 385 -18 561 -18 q 247 3 319 -18 q 136 47 175 25 l 97 69 l 147 190 q 394 119 286 119 m 492 831 q 375 851 457 851 q 263 809 293 851 q 233 678 233 767 q 260 552 233 589 q 381 515 288 515 q 553 543 456 515 q 492 831 553 796 z "}," ":{"ha":326,"x_min":0,"x_max":0,"o":""},"!":{"ha":394,"x_min":103,"x_max":294,"o":"m 131 272 l 110 971 l 286 971 l 264 272 l 131 272 m 103 0 l 103 151 l 294 151 l 294 0 l 103 0 z "},"\"":{"ha":521,"x_min":67,"x_max":454,"o":"m 208 1001 l 208 956 l 185 644 l 89 644 l 67 1001 l 208 1001 m 454 1001 l 454 956 l 429 644 l 333 644 l 313 932 l 311 1001 l 454 1001 z "},"#":{"ha":793,"x_min":24,"x_max":753,"o":"m 24 254 l 24 392 l 157 392 l 185 572 l 72 572 l 72 710 l 207 710 l 247 965 l 383 965 l 343 710 l 503 710 l 543 965 l 681 965 l 640 710 l 753 710 l 753 572 l 618 572 l 590 392 l 704 392 l 704 254 l 568 254 l 529 0 l 393 0 l 432 254 l 272 254 l 233 0 l 96 0 l 135 254 l 24 254 m 294 392 l 454 392 l 482 572 l 322 572 l 294 392 z "},"$":{"ha":738,"x_min":39,"x_max":669,"o":"m 381 128 q 503 261 503 128 q 458 356 503 318 q 319 436 413 393 q 201 493 226 479 q 138 539 176 507 q 65 709 65 599 q 125 890 65 819 q 297 982 185 961 l 297 1114 l 432 1114 l 432 986 q 632 949 529 976 l 606 813 q 372 842 454 842 q 262 818 290 842 q 233 736 233 794 q 267 647 233 678 q 449 549 311 610 q 535 503 488 532 q 599 457 583 475 q 633 413 615 439 q 669 282 669 363 q 604 88 669 167 q 429 -11 539 10 l 429 -162 l 296 -162 l 296 -15 q 169 12 233 -8 q 39 67 106 32 q 60 127 51 104 q 74 166 68 150 q 86 200 79 182 q 381 128 246 128 z "},"%":{"ha":1128,"x_min":63,"x_max":1065,"o":"m 236 -12 l 519 546 l 738 1018 l 879 1018 l 615 482 l 379 -12 l 236 -12 m 440 609 q 407 582 440 609 q 283 554 375 554 q 127 609 192 554 q 63 776 63 664 q 126 942 63 889 q 283 996 190 996 q 440 942 376 996 q 504 776 504 889 q 440 609 504 664 m 1001 36 q 969 9 1001 36 q 844 -18 938 -18 q 688 36 751 -18 q 624 203 624 90 q 688 370 624 317 q 844 424 751 424 q 1001 370 938 424 q 1065 203 1065 317 q 1001 36 1065 90 m 190 775 q 190 726 190 775 q 284 678 190 678 q 378 775 378 678 q 284 872 378 872 q 190 775 190 872 m 751 203 q 751 154 751 203 q 844 106 751 106 q 938 203 938 106 q 844 300 938 300 q 751 203 751 300 z "},"&":{"ha":943,"x_min":32,"x_max":900,"o":"m 351 -18 q 119 69 207 -18 q 32 260 32 156 q 89 434 32 365 q 221 533 146 503 q 101 746 101 613 q 175 920 101 851 q 381 989 249 989 q 581 919 513 989 q 649 751 649 849 q 503 526 649 610 q 678 369 606 457 q 758 542 722 447 l 896 501 q 769 256 849 378 q 900 -12 840 149 l 742 -18 q 669 133 725 38 q 351 -18 525 -18 m 242 379 q 220 354 242 379 q 199 263 199 329 q 242 153 199 196 q 353 111 286 111 q 482 150 419 111 q 590 250 544 189 q 361 456 494 375 q 242 379 286 429 m 371 596 q 454 658 421 618 q 488 751 488 699 q 460 833 488 803 q 374 864 432 864 q 263 753 263 864 q 371 596 263 651 z "},"'":{"ha":289,"x_min":74,"x_max":215,"o":"m 215 1004 l 215 957 l 192 647 l 94 647 l 75 938 l 74 1004 l 215 1004 z "},"(":{"ha":467,"x_min":85,"x_max":433,"o":"m 85 467 q 364 1106 85 947 l 433 1011 q 249 468 249 890 q 433 -78 249 46 l 364 -172 q 163 52 240 -103 q 85 467 85 207 z "},")":{"ha":467,"x_min":32,"x_max":381,"o":"m 32 -78 q 217 468 217 46 q 32 1011 217 890 l 103 1106 q 381 467 381 946 q 103 -172 381 -12 l 32 -78 z "},"*":{"ha":583,"x_min":39,"x_max":543,"o":"m 219 993 l 363 993 l 363 965 l 338 819 l 472 886 l 500 896 l 543 758 l 515 750 l 360 728 l 483 615 l 503 596 l 393 503 l 378 525 l 290 668 l 201 524 l 185 501 l 79 594 l 97 615 l 219 728 l 65 750 l 39 758 l 82 896 l 110 886 l 244 819 l 219 965 l 219 993 z "},"+":{"ha":875,"x_min":61,"x_max":813,"o":"m 367 26 l 367 338 l 61 338 l 61 475 l 367 475 l 367 783 l 507 783 l 507 475 l 813 475 l 813 338 l 507 338 l 507 26 l 367 26 z "},",":{"ha":400,"x_min":78,"x_max":282,"o":"m 122 -28 l 122 147 l 282 147 l 282 72 q 165 -236 282 -144 l 78 -186 q 122 -28 122 -129 z "},"-":{"ha":443,"x_min":53,"x_max":390,"o":"m 53 386 l 53 522 l 390 522 l 390 386 l 53 386 z "},".":{"ha":385,"x_min":94,"x_max":286,"o":"m 94 0 l 94 156 l 286 156 l 286 0 l 94 0 z "},"/":{"ha":642,"x_min":-6,"x_max":621,"o":"m -6 -136 l 250 451 l 463 971 l 621 971 l 372 396 l 153 -136 l -6 -136 z "},":":{"ha":460,"x_min":139,"x_max":331,"o":"m 139 613 l 139 768 l 331 768 l 331 613 l 139 613 m 139 0 l 139 156 l 331 156 l 331 0 l 139 0 z "},";":{"ha":460,"x_min":110,"x_max":331,"o":"m 154 -28 l 154 147 l 314 147 l 314 72 q 197 -236 314 -144 l 110 -186 q 154 -28 154 -129 m 139 613 l 139 768 l 331 768 l 331 613 l 139 613 z "},"<":{"ha":908,"x_min":93,"x_max":844,"o":"m 93 349 l 93 468 l 844 801 l 844 646 l 294 413 l 294 404 l 844 169 l 844 15 l 93 349 z "},"=":{"ha":885,"x_min":61,"x_max":822,"o":"m 61 472 l 61 611 l 822 611 l 822 472 l 61 472 m 61 199 l 61 336 l 822 336 l 822 199 l 61 199 z "},">":{"ha":911,"x_min":79,"x_max":829,"o":"m 79 15 l 79 169 l 628 404 l 628 413 l 79 646 l 79 801 l 829 468 l 829 349 l 79 15 z "},"?":{"ha":668,"x_min":32,"x_max":636,"o":"m 86 776 l 32 901 q 76 926 49 911 q 183 965 104 940 q 333 989 263 989 q 551 915 467 989 q 636 725 636 840 q 576 554 636 619 q 523 501 544 519 q 459 453 501 483 q 397 406 417 424 q 357 352 376 388 q 336 272 338 317 l 193 272 q 193 286 193 279 q 219 415 193 358 q 287 504 246 471 q 369 567 328 538 q 469 732 469 636 q 346 843 469 843 q 230 826 294 843 q 86 776 165 810 m 172 0 l 172 151 l 363 151 l 363 0 l 172 0 z "},"@":{"ha":1154,"x_min":81,"x_max":1067,"o":"m 715 -46 q 566 -67 653 -67 q 393 -34 479 -67 q 236 61 307 -1 q 123 224 165 124 q 81 452 81 325 q 126 683 81 579 q 244 847 171 786 q 593 975 399 975 q 927 857 788 975 q 1067 538 1067 739 q 981 272 1067 382 q 794 161 896 161 q 713 199 738 161 q 682 308 688 236 l 676 308 q 506 161 599 161 q 391 231 442 161 q 340 465 340 301 q 397 697 340 629 q 569 764 453 764 q 793 726 651 764 q 790 451 790 533 q 791 340 790 368 q 794 294 792 311 q 801 274 797 278 q 811 271 804 271 q 904 346 854 271 q 954 532 954 421 q 859 772 954 683 q 591 861 764 861 q 308 758 418 861 q 197 460 197 654 q 307 155 197 267 q 576 43 417 43 q 701 58 615 43 l 715 -46 m 667 633 q 569 644 633 644 q 490 612 506 644 q 474 467 474 579 q 519 286 474 286 q 617 405 568 286 q 667 633 667 524 z "},"A":{"ha":753,"x_min":-4,"x_max":744,"o":"m -4 0 l 272 971 l 469 971 l 744 0 l 576 0 l 515 239 l 226 239 l 164 0 l -4 0 m 257 375 l 485 375 l 375 828 l 367 828 l 257 375 z "},"B":{"ha":885,"x_min":135,"x_max":779,"o":"m 456 989 q 754 722 754 989 q 737 623 754 656 q 708 575 719 590 q 681 547 697 560 q 617 511 653 528 l 617 506 q 779 290 779 463 q 681 42 779 113 q 465 -18 593 -18 q 135 6 356 -18 l 142 453 l 135 971 q 456 989 319 989 m 297 122 q 475 110 397 110 q 581 150 553 110 q 608 285 608 190 q 568 411 608 379 q 453 443 528 443 l 297 444 l 297 122 m 297 568 q 465 567 397 567 q 560 600 533 567 q 588 716 588 633 q 556 831 588 799 q 451 864 525 864 l 297 856 l 297 568 z "},"C":{"ha":839,"x_min":89,"x_max":769,"o":"m 450 -18 q 185 100 281 -18 q 89 475 89 218 q 244 931 89 826 q 349 976 294 964 q 509 989 403 989 q 729 961 615 989 l 711 825 q 470 844 581 844 q 329 813 360 844 q 261 471 261 742 q 285 260 261 344 q 341 148 308 176 q 437 119 374 119 q 569 139 500 119 q 719 196 639 158 l 769 72 q 727 47 754 63 q 617 7 700 32 q 450 -18 533 -18 z "},"D":{"ha":910,"x_min":135,"x_max":819,"o":"m 135 971 q 442 989 343 989 q 607 962 540 989 q 714 891 674 935 q 778 782 754 847 q 819 497 819 672 q 435 -18 819 -18 q 135 0 372 -18 l 135 971 m 432 122 q 572 156 536 122 q 643 495 643 221 q 576 822 643 769 q 454 849 544 849 l 296 840 l 297 133 q 432 122 372 122 z "},"E":{"ha":743,"x_min":135,"x_max":660,"o":"m 135 0 l 135 971 l 660 971 l 660 829 l 297 833 l 290 561 l 625 561 l 625 424 l 290 424 l 297 139 l 660 142 l 660 0 l 135 0 z "},"F":{"ha":724,"x_min":135,"x_max":660,"o":"m 135 0 l 135 971 l 660 971 l 660 825 l 296 829 l 290 558 l 615 558 l 615 422 l 290 422 l 297 0 l 135 0 z "},"G":{"ha":883,"x_min":89,"x_max":764,"o":"m 463 524 l 764 524 l 764 40 q 474 -18 642 -18 q 353 -6 407 -18 q 249 39 300 6 q 164 128 199 72 q 89 489 89 251 q 203 896 89 790 q 328 969 260 949 q 515 989 397 989 q 761 960 632 989 l 742 825 q 488 844 551 844 q 326 811 358 844 q 261 488 261 746 q 329 158 261 231 q 465 119 365 119 q 607 135 564 119 l 607 397 l 463 406 l 463 524 z "},"H":{"ha":956,"x_min":135,"x_max":821,"o":"m 135 0 l 135 971 l 297 971 l 293 564 l 663 564 l 658 971 l 821 971 l 821 0 l 658 0 l 663 424 l 294 424 l 297 0 l 135 0 z "},"I":{"ha":435,"x_min":135,"x_max":299,"o":"m 135 -1 l 140 446 l 135 971 l 299 971 l 293 540 l 299 -1 l 135 -1 z "},"J":{"ha":475,"x_min":-18,"x_max":346,"o":"m 0 132 q 92 121 49 121 q 150 133 136 121 q 185 324 185 160 l 185 971 l 346 971 l 346 335 q 93 -18 346 -18 q -18 -6 47 -18 l 0 132 z "},"K":{"ha":863,"x_min":135,"x_max":876,"o":"m 672 0 l 301 500 l 644 971 l 839 971 l 475 507 l 475 499 l 876 0 l 672 0 m 299 971 l 299 0 l 135 0 l 142 493 l 135 971 l 299 971 z "},"L":{"ha":649,"x_min":135,"x_max":644,"o":"m 135 0 l 135 971 l 297 971 l 290 142 l 644 144 l 644 0 l 135 0 z "},"M":{"ha":1140,"x_min":129,"x_max":1010,"o":"m 129 0 l 161 971 l 381 971 l 565 382 l 574 382 l 756 971 l 976 971 l 1010 0 l 849 0 l 846 811 l 839 811 l 657 239 l 485 239 l 299 811 l 290 811 l 292 0 l 129 0 z "},"N":{"ha":971,"x_min":135,"x_max":838,"o":"m 135 0 l 135 971 l 347 971 l 696 188 l 703 188 l 683 971 l 838 971 l 838 0 l 625 0 l 278 782 l 271 782 l 289 0 l 135 0 z "},"O":{"ha":944,"x_min":89,"x_max":856,"o":"m 472 -18 q 351 -5 406 -18 q 247 42 297 8 q 164 132 197 76 q 89 488 89 253 q 203 892 89 783 q 323 967 258 944 q 472 989 388 989 q 622 967 557 989 q 742 892 686 944 q 856 488 856 783 q 697 42 856 150 q 472 -18 608 -18 m 335 163 q 349 152 335 163 q 394 134 363 142 q 489 126 425 126 q 594 150 553 126 q 686 483 686 201 q 675 671 686 600 q 635 781 664 742 q 570 832 607 819 q 472 844 533 844 q 375 832 411 844 q 310 781 339 819 q 271 671 282 742 q 260 495 260 600 q 268 326 260 390 q 292 223 276 263 q 335 163 307 183 z "},"P":{"ha":839,"x_min":135,"x_max":767,"o":"m 135 969 q 475 989 331 989 q 693 904 619 989 q 767 656 767 819 q 667 378 767 456 q 451 308 581 308 l 297 315 l 297 0 l 135 0 l 140 451 l 135 969 m 297 460 q 465 446 378 446 q 575 485 553 446 q 597 667 597 525 q 558 839 597 810 q 450 860 533 860 q 297 849 367 860 l 297 460 z "},"Q":{"ha":965,"x_min":89,"x_max":915,"o":"m 586 -6 q 458 -18 531 -18 q 321 4 385 -18 q 202 81 257 26 q 118 238 147 135 q 89 488 89 340 q 118 737 89 635 q 203 892 147 839 q 324 967 258 944 q 474 989 389 989 q 622 967 558 989 q 742 892 686 944 q 856 490 856 783 q 724 71 856 196 l 724 63 l 915 4 l 863 -135 l 586 -6 m 335 163 q 349 152 335 163 q 394 134 363 142 q 489 126 425 126 q 594 150 553 126 q 686 483 686 201 q 675 671 686 600 q 635 781 664 742 q 571 832 607 819 q 474 844 535 844 q 376 832 413 844 q 310 781 339 819 q 271 671 282 742 q 260 495 260 600 q 268 326 260 390 q 292 223 276 263 q 335 163 307 183 z "},"R":{"ha":926,"x_min":135,"x_max":831,"o":"m 472 989 q 807 676 807 989 q 604 389 807 446 l 604 382 l 831 0 l 640 0 l 451 367 l 299 372 l 299 0 l 135 0 l 142 456 l 138 969 q 472 989 293 989 m 297 511 q 490 499 407 499 q 605 540 572 499 q 638 687 638 581 q 604 831 638 793 q 484 861 575 861 q 299 849 393 861 l 297 511 z "},"S":{"ha":753,"x_min":51,"x_max":682,"o":"m 393 128 q 515 261 515 128 q 469 357 515 318 q 342 433 424 396 q 249 476 261 469 q 207 499 238 482 q 165 526 176 515 q 131 559 153 538 q 101 603 110 581 q 78 719 78 663 q 159 913 78 838 q 390 989 240 989 q 607 958 500 989 l 644 949 l 618 813 q 387 842 467 842 q 276 816 307 842 q 246 734 246 790 q 284 647 246 678 q 373 591 322 615 q 455 553 424 567 q 502 531 486 539 q 546 508 518 524 q 589 478 574 492 q 625 444 604 465 q 656 400 646 422 q 682 283 682 346 q 594 65 682 149 q 365 -18 507 -18 q 215 3 293 -18 q 94 44 136 24 l 51 67 q 72 127 64 104 q 86 166 81 150 q 99 200 92 182 q 393 128 258 128 z "},"T":{"ha":692,"x_min":-6,"x_max":690,"o":"m -6 971 l 690 971 l 690 828 l 419 832 l 422 0 l 261 0 l 265 832 l -6 828 l -6 971 z "},"U":{"ha":950,"x_min":135,"x_max":815,"o":"m 135 424 l 135 971 l 297 971 l 297 461 q 313 240 297 310 q 364 147 329 169 q 476 126 399 125 q 587 148 553 126 q 637 239 621 169 q 653 461 653 308 l 653 971 l 815 971 l 815 436 q 726 75 815 172 q 621 3 681 24 q 475 -18 561 -18 q 219 79 303 -18 q 135 424 135 176 z "},"V":{"ha":790,"x_min":22,"x_max":758,"o":"m 288 0 l 22 971 l 193 971 l 385 143 l 393 143 l 586 971 l 758 971 l 490 0 l 288 0 z "},"W":{"ha":1090,"x_min":39,"x_max":1033,"o":"m 179 0 l 39 971 l 201 971 l 290 158 l 299 158 l 435 738 l 638 738 l 774 158 l 782 158 l 869 971 l 1033 971 l 890 0 l 681 0 l 540 594 l 532 594 l 393 0 l 179 0 z "},"X":{"ha":804,"x_min":7,"x_max":788,"o":"m 7 0 l 293 486 l 17 971 l 201 971 l 392 589 l 400 589 l 592 971 l 776 971 l 500 483 l 788 0 l 601 0 l 403 376 l 396 376 l 193 0 l 7 0 z "},"Y":{"ha":760,"x_min":4,"x_max":746,"o":"m 292 0 l 296 356 l 4 971 l 181 971 l 371 489 l 378 489 l 569 971 l 746 971 l 454 356 l 457 0 l 292 0 z "},"Z":{"ha":774,"x_min":40,"x_max":722,"o":"m 40 0 l 40 136 l 528 828 l 528 838 l 69 828 l 69 971 l 717 971 l 717 835 l 236 142 l 236 135 l 722 142 l 722 0 l 40 0 z "},"[":{"ha":458,"x_min":136,"x_max":411,"o":"m 136 -172 l 136 1093 l 411 1093 l 411 968 l 285 972 l 285 -51 l 411 -49 l 411 -172 l 136 -172 z "},"\\":{"ha":644,"x_min":21,"x_max":646,"o":"m 489 -136 l 269 396 l 21 971 l 179 971 l 390 451 l 646 -136 l 489 -136 z "},"]":{"ha":458,"x_min":46,"x_max":321,"o":"m 46 -172 l 46 -49 l 175 -51 l 175 972 l 46 968 l 46 1093 l 321 1093 l 321 -172 l 46 -172 z "},"^":{"ha":722,"x_min":69,"x_max":651,"o":"m 69 451 l 278 972 l 444 972 l 651 451 l 504 436 l 365 842 l 357 842 l 218 436 l 69 451 z "},"_":{"ha":772,"x_min":18,"x_max":754,"o":"m 18 -226 l 18 -112 l 754 -112 l 754 -226 l 18 -226 z "},"`":{"ha":865,"x_min":225,"x_max":633,"o":"m 225 1001 l 269 1129 l 633 1000 l 603 906 l 225 1001 z "},"a":{"ha":817,"x_min":64,"x_max":696,"o":"m 300 -18 q 128 49 193 -18 q 64 251 64 117 q 151 446 64 385 q 401 507 238 507 l 535 506 q 513 669 535 640 q 429 697 492 697 q 290 682 367 697 q 126 635 213 667 l 83 753 q 135 774 103 761 q 257 809 168 788 q 419 831 346 831 q 696 531 696 831 l 696 0 l 593 0 l 571 88 l 564 88 q 523 58 549 75 q 427 11 497 40 q 300 -18 357 -18 m 535 375 q 381 383 478 383 q 260 360 283 383 q 229 253 229 332 q 249 147 229 175 q 315 118 269 118 q 415 134 360 118 q 535 181 469 150 l 535 375 z "},"b":{"ha":832,"x_min":114,"x_max":746,"o":"m 114 1051 l 275 1051 l 275 804 q 471 831 392 831 q 746 418 746 831 q 444 -18 746 -18 q 282 -1 381 -18 q 114 39 183 15 l 114 1051 m 275 135 q 428 115 356 115 q 522 136 500 115 q 579 442 579 183 q 563 639 579 575 q 536 678 556 667 q 501 692 517 690 q 449 694 486 694 q 275 667 372 694 l 275 135 z "},"c":{"ha":742,"x_min":86,"x_max":696,"o":"m 649 179 q 696 61 664 132 q 662 40 683 53 q 571 4 640 26 q 429 -18 501 -18 q 178 86 269 -18 q 86 408 86 190 q 197 746 86 650 q 461 831 297 831 q 675 804 569 831 l 657 678 q 425 697 506 697 q 311 664 344 697 q 253 397 253 601 q 332 135 253 193 q 408 114 361 114 q 514 131 454 114 q 649 179 574 147 z "},"d":{"ha":839,"x_min":86,"x_max":725,"o":"m 354 -18 q 160 85 233 -18 q 86 394 86 189 q 222 781 86 681 q 393 831 293 831 q 564 804 461 831 l 564 1051 l 725 1051 l 725 0 l 619 0 l 601 82 l 593 82 q 526 35 553 51 q 451 0 500 18 q 354 -18 401 -18 m 564 661 q 401 696 479 696 q 299 667 322 696 q 253 395 253 608 q 306 138 253 182 q 367 121 324 121 q 535 167 447 121 l 564 182 l 564 661 z "},"e":{"ha":818,"x_min":86,"x_max":739,"o":"m 433 -18 q 86 406 86 -18 q 431 831 86 831 q 662 742 585 831 q 739 447 739 653 l 739 347 l 254 347 q 307 144 254 193 q 400 114 342 114 q 638 156 513 114 l 681 171 l 719 49 q 433 -18 583 -18 m 575 517 q 574 553 575 525 q 571 588 572 582 q 566 616 569 594 q 558 642 563 638 q 545 661 553 647 q 528 678 538 675 q 506 689 518 682 q 431 699 486 699 q 341 686 376 699 q 287 642 306 674 q 263 572 268 610 q 256 468 257 535 l 575 475 l 575 517 z "},"f":{"ha":501,"x_min":58,"x_max":519,"o":"m 151 0 l 151 647 l 58 647 l 58 746 l 151 765 q 228 1001 160 932 q 419 1069 297 1069 l 519 1065 l 508 935 q 403 939 439 939 q 350 929 367 939 q 313 768 313 907 l 492 768 l 492 643 l 313 643 l 313 0 l 151 0 z "},"g":{"ha":757,"x_min":54,"x_max":722,"o":"m 92 -82 q 447 -118 333 -118 q 560 -83 560 -118 q 523 -39 560 -61 q 342 44 486 -17 q 197 107 197 104 l 254 267 q 54 533 54 332 q 151 760 54 690 q 403 831 247 831 q 722 814 489 831 l 722 717 l 633 703 q 675 529 675 611 q 590 331 675 407 q 354 253 504 254 q 349 192 349 199 q 477 132 349 185 q 651 40 606 79 q 696 -61 696 0 q 606 -199 696 -150 q 369 -249 517 -249 q 113 -218 235 -249 l 74 -208 l 92 -82 m 378 703 q 240 668 279 703 q 200 540 200 633 q 237 414 200 447 q 362 381 274 381 q 485 413 450 381 q 519 535 519 446 q 510 656 519 624 q 496 692 500 689 q 378 703 488 697 z "},"h":{"ha":843,"x_min":107,"x_max":732,"o":"m 107 0 l 107 1051 l 268 1051 l 268 761 q 531 832 422 832 q 685 758 639 832 q 732 536 732 683 l 732 0 l 571 0 l 571 497 q 551 651 571 615 q 474 688 532 688 q 386 674 438 688 q 268 633 335 661 l 268 0 l 107 0 z "},"i":{"ha":431,"x_min":122,"x_max":308,"o":"m 135 0 l 135 813 l 296 813 l 296 0 l 135 0 m 122 921 l 122 1051 l 308 1051 l 308 921 l 122 921 z "},"j":{"ha":456,"x_min":-35,"x_max":333,"o":"m -17 -103 q 85 -111 38 -111 q 146 -78 132 -111 q 160 83 160 -46 l 160 813 l 321 813 l 321 85 q 254 -169 321 -92 q 79 -247 188 -247 l -35 -237 l -17 -103 m 147 921 l 147 1051 l 333 1051 l 333 921 l 147 921 z "},"k":{"ha":793,"x_min":114,"x_max":817,"o":"m 275 1046 l 275 0 l 114 0 l 121 446 l 114 1046 l 275 1046 m 608 0 l 276 436 l 586 808 l 792 808 l 451 443 l 451 436 l 817 0 l 608 0 z "},"l":{"ha":389,"x_min":114,"x_max":275,"o":"m 114 0 l 114 1051 l 275 1051 l 275 0 l 114 0 z "},"m":{"ha":1307,"x_min":129,"x_max":1196,"o":"m 129 0 l 129 813 l 235 813 l 253 732 l 260 732 q 547 832 428 832 q 711 726 667 832 q 796 777 765 760 q 883 813 826 794 q 992 832 940 832 q 1150 755 1104 832 q 1196 533 1196 678 l 1196 0 l 1035 0 l 1035 494 q 1019 648 1035 610 q 948 686 1003 686 q 833 663 893 686 q 738 617 772 639 q 743 531 743 561 l 743 0 l 582 0 l 582 497 q 546 675 582 651 q 494 686 529 686 q 290 621 408 686 l 290 0 l 129 0 z "},"n":{"ha":861,"x_min":129,"x_max":750,"o":"m 129 0 l 129 813 l 235 813 l 253 732 l 260 732 q 548 831 431 831 q 708 754 665 831 q 750 536 750 678 l 750 0 l 589 0 l 589 496 q 573 652 589 619 q 503 685 557 685 q 387 663 449 685 q 290 618 325 640 l 290 0 l 129 0 z "},"o":{"ha":831,"x_min":86,"x_max":744,"o":"m 744 406 q 744 301 744 406 q 669 90 744 197 q 416 -18 594 -18 q 162 90 238 -18 q 86 406 86 197 q 162 722 86 614 q 416 831 238 831 q 669 722 594 831 q 744 406 744 614 m 287 167 q 304 139 287 167 q 417 110 321 110 q 546 167 513 110 q 579 406 579 225 q 546 644 579 588 q 417 701 513 701 q 287 644 321 701 q 253 406 253 588 q 287 167 253 225 z "},"p":{"ha":840,"x_min":114,"x_max":754,"o":"m 114 -231 l 114 813 l 219 813 l 239 729 l 246 729 q 270 746 249 731 q 303 769 292 761 q 341 790 315 776 q 388 811 367 804 q 494 831 446 831 q 685 730 615 831 q 754 421 754 629 q 438 -18 754 -18 q 275 -1 378 -18 l 275 -231 l 114 -231 m 275 142 q 436 117 369 117 q 529 136 503 117 q 588 435 588 182 q 583 581 588 528 q 562 657 578 633 q 531 685 546 681 q 478 689 517 689 q 388 672 440 689 q 275 624 336 656 l 275 142 z "},"q":{"ha":833,"x_min":86,"x_max":719,"o":"m 558 -231 l 558 21 q 392 -18 468 -18 q 269 2 317 -18 q 178 68 221 22 q 86 405 86 165 q 165 738 86 644 q 404 831 243 831 q 547 818 468 831 q 719 781 625 806 l 719 -231 l 558 -231 m 558 676 q 399 696 481 696 q 293 671 318 696 q 253 419 253 624 q 301 140 253 181 q 372 119 326 119 q 558 153 458 119 l 558 676 z "},"r":{"ha":578,"x_min":129,"x_max":556,"o":"m 376 799 q 409 815 376 799 q 482 831 442 831 q 556 819 522 831 l 543 675 q 481 678 508 678 q 290 617 376 678 l 290 0 l 129 0 l 129 813 l 231 813 q 251 728 243 747 l 260 728 q 376 799 310 768 z "},"s":{"ha":711,"x_min":65,"x_max":642,"o":"m 375 115 q 457 140 429 115 q 485 221 485 165 q 449 301 485 276 q 364 340 413 325 q 310 356 315 354 q 278 367 304 358 q 228 383 251 375 q 167 411 204 392 q 114 453 131 431 q 68 592 68 508 q 138 766 68 701 q 342 831 208 831 q 606 786 476 831 l 581 658 q 349 693 436 693 q 242 670 263 693 q 222 606 222 647 q 262 538 222 564 q 374 491 301 513 q 463 465 447 469 q 510 448 478 460 q 555 426 542 436 q 589 399 568 417 q 619 361 610 382 q 642 250 642 311 q 569 55 642 128 q 363 -18 496 -18 q 222 0 296 -18 q 65 54 147 18 l 104 185 q 375 115 267 115 z "},"t":{"ha":533,"x_min":51,"x_max":469,"o":"m 144 264 l 144 646 l 51 646 l 51 746 l 151 765 l 183 957 l 307 957 l 307 768 l 469 768 l 469 643 l 306 643 l 306 257 q 317 142 306 164 q 379 121 329 121 l 468 125 l 468 -4 q 358 -15 421 -15 q 197 42 249 -15 q 144 264 144 100 z "},"u":{"ha":860,"x_min":111,"x_max":731,"o":"m 111 276 l 111 813 l 272 813 l 272 308 q 290 149 272 175 q 361 125 310 125 q 569 192 444 125 l 569 813 l 731 813 l 731 0 l 625 0 l 606 81 l 599 81 q 567 63 597 79 q 526 40 538 46 q 483 20 514 35 q 432 0 453 6 q 326 -18 374 -18 q 111 276 111 -18 z "},"v":{"ha":688,"x_min":8,"x_max":678,"o":"m 244 0 l 8 813 l 175 813 l 338 135 l 346 135 l 511 813 l 678 813 l 438 0 l 244 0 z "},"w":{"ha":1043,"x_min":18,"x_max":1019,"o":"m 181 0 l 18 813 l 179 813 l 288 108 l 294 108 l 414 703 l 624 703 l 743 108 l 751 108 l 857 813 l 1019 813 l 857 0 l 640 0 l 522 597 l 514 597 l 396 0 l 181 0 z "},"x":{"ha":733,"x_min":13,"x_max":710,"o":"m 13 0 l 265 425 l 21 813 l 199 813 l 358 514 l 367 514 l 524 813 l 701 813 l 457 424 l 710 0 l 526 0 l 364 328 l 356 328 l 196 0 l 13 0 z "},"y":{"ha":693,"x_min":-7,"x_max":690,"o":"m 163 -231 l 276 75 l -7 813 l 172 813 l 344 240 l 351 240 l 521 813 l 690 813 l 406 47 l 329 -231 l 163 -231 z "},"z":{"ha":678,"x_min":36,"x_max":639,"o":"m 36 0 l 36 117 l 443 679 l 443 688 l 54 678 l 54 813 l 631 813 l 631 696 l 225 132 l 225 124 l 639 133 l 639 0 l 36 0 z "},"{":{"ha":615,"x_min":67,"x_max":578,"o":"m 238 97 l 238 264 q 206 371 238 346 q 67 413 175 396 l 67 533 q 205 575 172 549 q 238 682 238 601 l 238 817 q 296 1020 238 949 q 488 1092 354 1092 l 578 1088 l 571 969 q 463 974 497 974 q 413 944 429 974 q 397 814 397 914 l 397 681 q 349 525 397 574 q 272 476 311 488 l 272 468 q 397 260 397 422 l 397 113 q 411 -17 397 17 q 467 -51 425 -51 l 571 -47 l 578 -168 q 488 -171 518 -171 q 238 97 238 -171 z "},"|":{"ha":394,"x_min":132,"x_max":263,"o":"m 132 -121 l 132 1058 l 263 1058 l 263 -121 l 132 -121 z "},"}":{"ha":615,"x_min":36,"x_max":547,"o":"m 43 -47 q 140 -51 90 -51 q 203 -17 189 -51 q 217 113 217 17 l 217 260 q 342 468 217 422 l 342 476 q 272 517 303 488 q 217 681 217 574 l 217 814 q 201 944 217 914 q 142 974 185 974 l 43 969 l 36 1088 q 126 1092 96 1092 q 318 1020 260 1092 q 376 817 376 949 l 376 682 q 409 575 376 601 q 547 533 442 549 l 547 413 q 408 371 439 396 q 376 264 376 346 l 376 97 q 126 -171 376 -171 l 36 -168 l 43 -47 z "},"~":{"ha":744,"x_min":26,"x_max":708,"o":"m 197 517 q 379 469 251 517 q 549 422 507 422 q 660 461 592 422 l 708 376 q 641 313 685 342 q 549 283 597 283 q 369 331 501 283 q 191 378 236 378 q 78 331 146 378 l 26 417 q 197 517 118 517 z "},"¡":{"ha":393,"x_min":103,"x_max":294,"o":"m 111 -157 l 132 540 l 265 540 l 286 -157 l 111 -157 m 103 660 l 103 813 l 294 813 l 294 660 l 103 660 z "},"¢":{"ha":742,"x_min":86,"x_max":696,"o":"m 365 -162 l 365 -12 q 86 401 86 26 q 365 822 86 775 l 365 964 l 499 964 l 499 829 q 675 804 582 826 l 657 678 q 438 697 506 697 q 290 637 326 697 q 253 385 253 576 q 332 135 253 193 q 408 114 361 114 q 514 131 454 114 q 649 179 574 147 l 696 61 q 499 -12 617 3 l 499 -162 l 365 -162 z "},"£":{"ha":807,"x_min":89,"x_max":742,"o":"m 89 0 l 89 139 l 214 139 l 214 468 l 89 468 l 89 589 l 215 589 q 312 899 224 810 q 550 989 400 989 q 742 961 642 989 l 725 831 q 535 850 586 850 q 411 802 442 850 q 376 589 381 754 l 631 589 l 631 468 l 375 468 l 375 140 l 721 143 l 721 0 l 89 0 z "},"¤":{"ha":911,"x_min":93,"x_max":825,"o":"m 175 297 q 122 485 122 379 q 176 676 122 590 l 96 758 l 188 851 l 271 768 q 460 824 361 824 q 646 769 560 824 l 731 851 l 822 760 l 740 679 q 799 487 799 594 q 743 294 799 379 l 825 214 l 732 122 l 650 203 q 460 147 560 147 q 267 206 360 147 l 185 122 l 93 215 l 175 297 m 260 485 q 260 432 260 485 q 314 328 260 379 q 467 278 368 278 q 613 326 565 278 q 661 483 661 375 q 608 642 661 592 q 461 693 554 693 q 314 642 368 693 q 260 485 260 592 z "},"¥":{"ha":794,"x_min":24,"x_max":765,"o":"m 68 385 l 68 497 l 251 494 l 24 971 l 200 971 l 392 497 l 400 497 l 589 971 l 765 971 l 538 494 l 721 497 l 721 385 l 68 385 m 68 192 l 68 304 l 721 304 l 721 192 l 475 192 l 475 0 l 313 0 l 313 192 l 68 192 z "},"¦":{"ha":394,"x_min":132,"x_max":263,"o":"m 132 560 l 132 1058 l 263 1058 l 263 560 l 132 560 m 132 -121 l 132 378 l 263 378 l 263 -121 l 132 -121 z "},"§":{"ha":769,"x_min":69,"x_max":700,"o":"m 388 8 q 471 25 449 8 q 499 104 499 44 q 435 188 499 158 q 326 226 386 210 q 209 264 267 242 q 112 333 151 286 q 72 453 72 381 q 160 622 72 557 q 101 772 101 676 q 175 928 101 868 q 379 988 249 988 q 614 951 510 988 l 588 818 q 360 853 471 853 q 281 835 307 853 q 256 772 256 818 q 301 696 256 725 q 413 649 347 667 q 543 610 478 632 q 654 542 608 589 q 700 424 700 494 q 610 251 700 328 q 656 118 656 200 q 573 -64 656 1 q 368 -129 490 -129 q 222 -110 297 -129 q 108 -72 147 -92 l 69 -54 l 113 79 q 388 8 269 8 m 499 319 q 546 403 546 367 q 515 460 546 440 q 438 494 483 481 q 358 519 392 508 q 268 550 297 538 q 226 458 226 511 q 276 393 226 415 q 383 356 307 379 q 499 319 460 333 z "},"¨":{"ha":817,"x_min":176,"x_max":640,"o":"m 176 940 l 176 1069 l 349 1069 l 349 940 l 176 940 m 469 940 l 469 1069 l 640 1069 l 640 940 l 469 940 z "},"©":{"ha":1165,"x_min":89,"x_max":1075,"o":"m 1075 446 q 1075 338 1075 446 q 936 89 1075 229 q 581 -51 797 -51 q 227 89 365 -51 q 89 444 89 229 q 231 801 89 660 q 585 943 374 943 q 936 803 797 943 q 1075 446 1075 663 m 201 444 q 201 355 201 444 q 302 162 201 265 q 581 58 403 58 q 861 163 760 58 q 963 446 963 267 q 861 729 963 625 q 585 833 760 833 q 306 728 410 833 q 201 444 201 624 m 765 196 q 581 147 693 147 q 402 218 469 147 q 335 440 335 289 q 414 690 335 625 q 594 747 482 747 q 674 740 625 747 q 743 724 724 732 l 729 614 q 597 626 647 626 q 525 617 546 626 q 481 440 481 594 q 503 302 481 335 q 564 269 526 269 q 735 304 642 269 l 765 196 z "},"ª":{"ha":604,"x_min":58,"x_max":506,"o":"m 393 467 q 219 401 297 401 q 58 589 58 401 q 122 722 58 679 q 283 761 171 756 q 382 764 321 764 q 365 852 382 832 q 300 872 349 872 q 132 842 211 872 l 106 831 l 76 935 q 303 982 200 982 q 506 774 506 982 l 506 414 l 418 414 l 399 467 l 393 467 m 382 658 q 286 661 347 661 q 205 644 225 661 q 185 587 185 628 q 201 529 185 546 q 247 513 217 513 q 382 551 301 513 l 382 658 z "},"«":{"ha":724,"x_min":44,"x_max":681,"o":"m 253 114 l 44 468 l 253 822 l 372 751 l 201 472 l 201 464 l 372 185 l 253 114 m 563 115 l 356 468 l 563 819 l 681 749 l 513 472 l 513 464 l 681 188 l 563 115 z "},"¬":{"ha":831,"x_min":28,"x_max":779,"o":"m 28 338 l 28 476 l 779 476 l 779 164 l 638 164 l 638 338 l 28 338 z "},"­":{"ha":483,"x_min":75,"x_max":411,"o":"m 75 360 l 75 497 l 411 497 l 411 360 l 75 360 z "},"®":{"ha":1165,"x_min":89,"x_max":1075,"o":"m 1075 446 q 1075 338 1075 446 q 936 89 1075 229 q 581 -51 797 -51 q 227 89 365 -51 q 89 444 89 229 q 231 801 89 660 q 585 943 374 943 q 936 803 797 943 q 1075 446 1075 663 m 201 444 q 201 355 201 444 q 302 162 201 265 q 581 58 403 58 q 861 163 760 58 q 963 446 963 267 q 861 729 963 625 q 585 833 760 833 q 306 728 410 833 q 201 444 201 624 m 575 363 l 501 364 l 501 165 l 374 165 l 378 431 l 375 726 q 590 738 492 738 q 800 554 800 738 q 770 438 800 482 q 694 376 740 393 l 694 372 l 806 165 l 658 165 l 575 363 m 593 629 l 503 624 l 501 475 q 589 471 543 471 q 650 490 635 471 q 665 552 665 508 q 650 613 665 596 q 593 629 635 629 z "},"¯":{"ha":814,"x_min":190,"x_max":632,"o":"m 190 944 l 190 1051 l 632 1051 l 632 944 l 190 944 z "},"°":{"ha":492,"x_min":25,"x_max":467,"o":"m 402 609 q 370 582 402 609 q 246 554 338 554 q 90 609 154 554 q 25 776 25 664 q 89 942 25 889 q 246 996 153 996 q 403 942 339 996 q 467 776 467 889 q 402 609 467 664 m 153 775 q 153 726 153 775 q 246 678 153 678 q 339 775 339 678 q 246 872 339 872 q 153 775 153 872 z "},"±":{"ha":806,"x_min":61,"x_max":743,"o":"m 61 13 l 61 150 l 743 150 l 743 13 l 61 13 m 61 454 l 61 590 l 332 590 l 332 801 l 472 801 l 472 590 l 743 590 l 743 454 l 472 454 l 472 235 l 332 235 l 332 454 l 61 454 z "},"²":{"ha":547,"x_min":67,"x_max":463,"o":"m 82 414 l 82 501 q 224 663 171 599 q 325 826 325 781 q 281 871 325 871 q 114 815 210 871 l 67 918 q 158 962 99 940 q 283 983 217 983 q 399 942 350 983 q 449 833 449 901 q 276 544 449 735 l 257 522 l 257 517 l 463 525 l 463 414 l 82 414 z "},"³":{"ha":518,"x_min":56,"x_max":440,"o":"m 86 549 q 234 514 185 514 q 297 530 283 514 q 310 585 310 546 q 288 640 310 625 q 214 656 267 656 l 142 656 l 142 753 q 271 771 244 760 q 297 815 297 782 q 286 858 297 849 q 204 872 274 872 q 96 863 144 869 l 85 968 q 233 983 171 983 q 424 832 424 983 q 371 728 424 760 q 349 717 364 724 l 349 711 q 440 581 440 686 q 397 451 440 500 q 254 403 353 403 q 158 414 208 403 q 56 446 108 425 l 86 549 z "},"´":{"ha":865,"x_min":232,"x_max":640,"o":"m 263 906 l 232 1000 l 596 1129 l 640 1001 l 263 906 z "},"µ":{"ha":861,"x_min":111,"x_max":731,"o":"m 111 -231 l 111 813 l 272 813 l 272 324 q 290 151 272 178 q 363 125 313 125 q 475 148 414 125 q 569 192 536 171 l 569 813 l 731 813 l 731 0 l 626 0 l 607 81 l 599 81 q 333 -18 425 -18 q 253 0 286 -18 l 247 -6 l 261 -231 l 111 -231 z "},"¶":{"ha":968,"x_min":57,"x_max":843,"o":"m 365 -228 l 365 256 q 135 342 214 260 q 57 617 57 424 q 141 890 57 810 q 388 971 225 971 l 843 971 l 843 -228 l 682 -228 l 682 831 l 526 831 l 526 -228 l 365 -228 z "},"·":{"ha":456,"x_min":122,"x_max":336,"o":"m 230 372 q 208 372 230 372 q 154 399 186 372 q 122 481 122 425 q 153 560 122 536 q 229 585 185 585 q 336 479 336 585 q 305 399 336 425 q 230 372 274 372 z "},"¸":{"ha":700,"x_min":265,"x_max":535,"o":"m 265 -131 q 363 -137 328 -137 q 413 -129 399 -137 q 428 -88 428 -121 q 410 17 428 -56 l 507 32 q 535 -107 535 -44 q 492 -209 535 -169 q 376 -249 449 -249 q 265 -236 333 -249 l 265 -131 z "},"¹":{"ha":544,"x_min":50,"x_max":479,"o":"m 93 414 l 93 525 l 232 525 l 232 849 l 226 849 l 114 760 l 50 849 l 244 982 l 358 974 l 358 525 l 479 525 l 479 414 l 93 414 z "},"º":{"ha":515,"x_min":22,"x_max":494,"o":"m 494 692 q 494 620 494 692 q 441 475 494 549 q 258 401 388 401 q 76 475 129 401 q 22 692 22 549 q 76 908 22 835 q 258 982 129 982 q 441 908 388 982 q 494 692 494 835 m 154 692 q 154 639 154 692 q 176 550 154 585 q 258 515 199 515 q 340 550 317 515 q 363 692 363 585 q 340 835 363 800 q 258 869 317 869 q 176 835 199 869 q 154 692 154 800 z "},"»":{"ha":724,"x_min":43,"x_max":679,"o":"m 351 185 l 522 464 l 522 472 l 351 751 l 471 822 l 679 468 l 471 114 l 351 185 m 43 188 l 213 464 l 213 472 l 43 749 l 163 819 l 369 468 l 163 115 l 43 188 z "},"¼":{"ha":1324,"x_min":50,"x_max":1249,"o":"m 361 -12 l 647 546 l 865 1018 l 1011 1018 l 747 482 l 510 -12 l 361 -12 m 813 110 l 813 189 q 815 210 813 201 l 953 581 l 1065 568 l 935 215 l 1074 219 l 1090 424 l 1193 424 l 1193 219 l 1249 221 l 1249 110 l 1193 110 l 1193 0 l 1071 0 l 1072 110 l 813 110 m 93 414 l 93 525 l 232 525 l 232 849 l 226 849 l 114 760 l 50 849 l 244 982 l 358 974 l 358 525 l 479 525 l 479 414 l 93 414 z "},"½":{"ha":1343,"x_min":50,"x_max":1257,"o":"m 363 -12 l 647 546 l 865 1018 l 1013 1018 l 747 482 l 511 -12 l 363 -12 m 93 414 l 93 525 l 232 525 l 232 849 l 226 849 l 114 760 l 50 849 l 244 982 l 358 974 l 358 525 l 479 525 l 479 414 l 93 414 m 876 0 l 876 88 q 1018 249 965 185 q 1119 412 1119 367 q 1075 457 1119 457 q 908 401 1004 457 l 861 504 q 952 548 893 526 q 1078 569 1011 569 q 1194 528 1144 569 q 1243 419 1243 488 q 1071 131 1243 321 l 1051 108 l 1051 103 l 1257 111 l 1257 0 l 876 0 z "},"¾":{"ha":1257,"x_min":54,"x_max":1182,"o":"m 301 -12 l 588 546 l 806 1018 l 951 1018 l 688 482 l 450 -12 l 301 -12 m 86 549 q 233 514 183 514 q 295 530 282 514 q 308 585 308 546 q 287 640 308 625 q 213 656 265 656 l 140 656 l 140 753 q 269 771 243 760 q 296 815 296 782 q 286 858 296 849 q 203 872 272 872 q 94 863 142 869 l 83 968 q 232 983 169 983 q 422 832 422 983 q 369 725 422 757 q 347 715 361 721 l 347 710 q 439 581 439 685 q 395 451 439 500 q 253 403 351 403 q 81 436 167 403 l 54 446 l 86 549 m 746 110 l 746 189 q 749 210 746 201 l 885 581 l 999 568 l 868 215 l 1006 219 l 1024 424 l 1126 424 l 1126 219 l 1182 221 l 1182 110 l 1126 110 l 1126 0 l 1003 0 l 1006 110 l 746 110 z "},"¿":{"ha":668,"x_min":31,"x_max":636,"o":"m 582 38 q 636 -89 600 1 q 592 -113 619 -99 q 484 -151 564 -128 q 335 -175 404 -175 q 116 -101 201 -175 q 31 88 31 -28 q 113 282 31 204 q 201 354 151 319 q 271 407 250 389 q 310 460 292 425 q 332 540 329 496 l 475 540 q 475 526 475 533 q 449 398 475 454 q 381 308 422 342 q 299 246 340 275 q 199 82 199 176 q 243 -14 199 15 q 321 -31 268 -31 q 438 -14 374 -31 q 582 38 503 3 m 307 661 l 307 813 l 499 813 l 499 661 l 307 661 z "},"À":{"ha":753,"x_min":-4,"x_max":744,"o":"m -4 0 l 272 971 l 469 971 l 744 0 l 576 0 l 515 239 l 226 239 l 164 0 l -4 0 m 257 375 l 485 375 l 375 828 l 367 828 l 257 375 m 178 1108 l 214 1231 l 572 1124 l 547 1032 l 178 1108 z "},"Á":{"ha":753,"x_min":-4,"x_max":744,"o":"m -4 0 l 272 971 l 469 971 l 744 0 l 576 0 l 515 239 l 226 239 l 164 0 l -4 0 m 257 375 l 485 375 l 375 828 l 367 828 l 257 375 m 218 1031 l 192 1122 l 547 1232 l 586 1108 l 218 1031 z "},"Â":{"ha":753,"x_min":-4,"x_max":744,"o":"m -4 0 l 272 971 l 469 971 l 744 0 l 576 0 l 515 239 l 226 239 l 164 0 l -4 0 m 257 375 l 485 375 l 375 828 l 367 828 l 257 375 m 175 1025 l 133 1092 l 329 1228 l 414 1228 l 611 1092 l 569 1025 l 376 1108 l 367 1108 q 175 1025 356 1103 z "},"Ã":{"ha":753,"x_min":-4,"x_max":744,"o":"m -4 0 l 272 971 l 469 971 l 744 0 l 576 0 l 515 239 l 226 239 l 164 0 l -4 0 m 257 375 l 485 375 l 375 828 l 367 828 l 257 375 m 229 1208 q 382 1177 269 1208 q 504 1146 494 1146 q 544 1204 522 1146 l 632 1192 q 518 1036 631 1036 q 365 1069 478 1036 q 242 1101 251 1101 q 222 1087 232 1101 q 200 1042 211 1072 l 114 1053 q 229 1208 114 1208 z "},"Ä":{"ha":753,"x_min":-4,"x_max":744,"o":"m -4 0 l 272 971 l 469 971 l 744 0 l 576 0 l 515 239 l 226 239 l 164 0 l -4 0 m 257 375 l 485 375 l 375 828 l 367 828 l 257 375 m 143 1061 l 143 1190 l 310 1190 l 310 1061 l 143 1061 m 439 1061 l 439 1190 l 606 1190 l 606 1061 l 439 1061 z "},"Å":{"ha":753,"x_min":-4,"x_max":744,"o":"m -4 0 l 272 971 l 469 971 l 744 0 l 576 0 l 515 239 l 226 239 l 164 0 l -4 0 m 257 375 l 485 375 l 375 828 l 367 828 l 257 375 m 372 1010 q 344 1010 372 1010 q 279 1038 317 1010 q 242 1132 242 1067 q 279 1226 242 1197 q 373 1254 317 1254 q 466 1226 429 1254 q 503 1132 503 1197 q 465 1038 503 1067 q 372 1010 428 1010 m 373 1178 q 359 1178 373 1178 q 334 1169 346 1178 q 322 1132 322 1160 q 334 1094 322 1104 q 373 1085 346 1085 q 410 1094 400 1085 q 421 1131 421 1103 q 410 1169 421 1160 q 373 1178 400 1178 z "},"Æ":{"ha":1122,"x_min":-10,"x_max":1038,"o":"m 1038 971 l 1038 828 l 674 832 l 668 561 l 1004 561 l 1004 424 l 668 424 l 674 139 l 1038 142 l 1038 0 l 514 0 l 514 238 l 260 238 l 158 0 l -10 0 l 418 971 l 1038 971 m 514 375 l 514 822 l 489 822 l 301 375 l 514 375 z "},"Ç":{"ha":839,"x_min":89,"x_max":769,"o":"m 300 -131 q 397 -137 361 -137 q 447 -129 433 -137 q 461 -89 461 -121 q 451 -18 461 -57 q 89 475 89 -18 q 244 931 89 826 q 349 976 294 964 q 509 989 403 989 q 729 961 615 989 l 711 825 q 470 844 581 844 q 329 813 360 844 q 261 471 261 742 q 285 260 261 344 q 341 148 308 176 q 437 119 374 119 q 569 139 500 119 q 719 196 639 158 l 769 72 q 554 -8 683 14 q 568 -103 568 -64 q 525 -209 568 -169 q 410 -249 482 -249 q 300 -236 369 -249 l 300 -131 z "},"È":{"ha":743,"x_min":135,"x_max":660,"o":"m 135 0 l 135 971 l 660 971 l 660 828 l 297 832 l 290 561 l 625 561 l 625 424 l 290 424 l 297 139 l 660 142 l 660 0 l 135 0 m 189 1108 l 225 1231 l 585 1124 l 558 1032 l 189 1108 z "},"É":{"ha":743,"x_min":135,"x_max":660,"o":"m 135 0 l 135 971 l 660 971 l 660 828 l 297 832 l 290 561 l 625 561 l 625 424 l 290 424 l 297 139 l 660 142 l 660 0 l 135 0 m 231 1031 l 204 1122 l 560 1232 l 599 1108 l 231 1031 z "},"Ê":{"ha":743,"x_min":135,"x_max":660,"o":"m 135 0 l 135 971 l 660 971 l 660 828 l 297 832 l 290 561 l 625 561 l 625 424 l 290 424 l 297 139 l 660 142 l 660 0 l 135 0 m 389 1108 l 196 1025 l 154 1092 l 351 1228 l 436 1228 l 632 1092 l 590 1025 l 399 1108 l 389 1108 z "},"Ë":{"ha":743,"x_min":135,"x_max":660,"o":"m 135 0 l 135 971 l 660 971 l 660 828 l 297 832 l 290 561 l 625 561 l 625 424 l 290 424 l 297 139 l 660 142 l 660 0 l 135 0 m 169 1061 l 169 1190 l 338 1190 l 338 1061 l 169 1061 m 465 1061 l 465 1190 l 632 1190 l 632 1061 l 465 1061 z "},"Ì":{"ha":435,"x_min":-4,"x_max":372,"o":"m -4 1107 l 32 1231 l 372 1124 l 346 1032 l -4 1107 m 299 0 l 135 -1 l 140 446 l 135 971 l 299 971 l 293 540 l 299 0 z "},"Í":{"ha":435,"x_min":63,"x_max":439,"o":"m 88 1031 l 63 1124 l 400 1232 l 439 1107 l 88 1031 m 299 0 l 135 -1 l 140 446 l 135 971 l 299 971 l 293 540 l 299 0 z "},"Î":{"ha":435,"x_min":-6,"x_max":439,"o":"m 35 1029 l -6 1100 l 175 1228 l 260 1228 l 439 1100 l 399 1029 l 222 1108 l 213 1108 l 35 1029 m 299 0 l 135 -1 l 140 446 l 135 971 l 299 971 l 293 540 l 299 0 z "},"Ï":{"ha":435,"x_min":4,"x_max":431,"o":"m 4 1061 l 4 1190 l 169 1190 l 169 1061 l 4 1061 m 265 1061 l 265 1190 l 431 1190 l 431 1061 l 265 1061 m 299 0 l 135 -1 l 140 446 l 135 971 l 299 971 l 293 540 l 299 0 z "},"Ð":{"ha":926,"x_min":61,"x_max":838,"o":"m 153 432 l 61 432 l 61 558 l 153 558 l 153 971 q 458 989 360 989 q 624 962 557 989 q 731 891 690 935 q 794 782 771 847 q 838 497 838 668 q 453 -18 838 -18 q 153 0 388 -18 l 153 432 m 314 432 l 314 132 q 449 122 389 122 q 590 154 556 122 q 661 496 661 222 q 593 822 661 769 q 471 849 564 849 l 314 839 l 314 558 l 472 558 l 472 432 l 314 432 z "},"Ñ":{"ha":971,"x_min":135,"x_max":838,"o":"m 135 0 l 135 971 l 347 971 l 696 188 l 703 188 l 683 971 l 838 971 l 838 0 l 625 0 l 278 782 l 271 782 l 289 0 l 135 0 m 347 1208 q 499 1177 388 1208 q 621 1146 611 1146 q 661 1204 639 1146 l 749 1192 q 635 1036 747 1036 q 481 1069 594 1036 q 359 1101 368 1101 q 340 1087 350 1101 q 318 1042 329 1072 l 231 1053 q 347 1208 232 1208 z "},"Ò":{"ha":946,"x_min":89,"x_max":856,"o":"m 472 -18 q 351 -5 406 -18 q 247 42 297 8 q 164 132 197 76 q 89 488 89 253 q 203 892 89 783 q 323 967 258 944 q 472 989 388 989 q 622 967 557 989 q 742 892 686 944 q 856 488 856 783 q 697 42 856 150 q 472 -18 608 -18 m 335 163 q 349 152 335 163 q 394 134 363 142 q 489 126 425 126 q 594 150 553 126 q 686 483 686 201 q 675 671 686 600 q 635 781 664 742 q 570 832 607 819 q 472 844 533 844 q 375 832 411 844 q 310 781 339 819 q 271 671 282 742 q 260 495 260 600 q 268 326 260 390 q 292 223 276 263 q 335 163 307 183 m 289 1108 l 325 1231 l 685 1124 l 658 1032 l 289 1108 z "},"Ó":{"ha":946,"x_min":89,"x_max":856,"o":"m 472 -18 q 351 -5 406 -18 q 247 42 297 8 q 164 132 197 76 q 89 488 89 253 q 203 892 89 783 q 323 967 258 944 q 472 989 388 989 q 622 967 557 989 q 742 892 686 944 q 856 488 856 783 q 697 42 856 150 q 472 -18 608 -18 m 335 163 q 349 152 335 163 q 394 134 363 142 q 489 126 425 126 q 594 150 553 126 q 686 483 686 201 q 675 671 686 600 q 635 781 664 742 q 570 832 607 819 q 472 844 533 844 q 375 832 411 844 q 310 781 339 819 q 271 671 282 742 q 260 495 260 600 q 268 326 260 390 q 292 223 276 263 q 335 163 307 183 m 329 1031 l 303 1122 l 658 1232 l 697 1108 l 329 1031 z "},"Ô":{"ha":946,"x_min":89,"x_max":856,"o":"m 472 -18 q 351 -5 406 -18 q 247 42 297 8 q 164 132 197 76 q 89 488 89 253 q 203 892 89 783 q 323 967 258 944 q 472 989 388 989 q 622 967 557 989 q 742 892 686 944 q 856 488 856 783 q 697 42 856 150 q 472 -18 608 -18 m 335 163 q 349 152 335 163 q 394 134 363 142 q 489 126 425 126 q 594 150 553 126 q 686 483 686 201 q 675 671 686 600 q 635 781 664 742 q 570 832 607 819 q 472 844 533 844 q 375 832 411 844 q 310 781 339 819 q 271 671 282 742 q 260 495 260 600 q 268 326 260 390 q 292 223 276 263 q 335 163 307 183 m 281 1025 l 238 1092 l 435 1228 l 519 1228 l 717 1092 l 675 1025 l 482 1108 l 472 1108 l 281 1025 z "},"Õ":{"ha":946,"x_min":89,"x_max":856,"o":"m 472 -18 q 351 -5 406 -18 q 247 42 297 8 q 164 132 197 76 q 89 488 89 253 q 203 892 89 783 q 323 967 258 944 q 472 989 388 989 q 622 967 557 989 q 742 892 686 944 q 856 488 856 783 q 697 42 856 150 q 472 -18 608 -18 m 335 163 q 349 152 335 163 q 394 134 363 142 q 489 126 425 126 q 594 150 553 126 q 686 483 686 201 q 675 671 686 600 q 635 781 664 742 q 570 832 607 819 q 472 844 533 844 q 375 832 411 844 q 310 781 339 819 q 271 671 282 742 q 260 495 260 600 q 268 326 260 390 q 292 223 276 263 q 335 163 307 183 m 331 1208 q 483 1177 372 1208 q 606 1146 594 1146 q 646 1204 624 1146 l 733 1192 q 619 1036 732 1036 q 466 1069 579 1036 q 343 1101 353 1101 q 323 1087 333 1101 q 301 1042 313 1072 l 214 1053 q 331 1208 215 1208 z "},"Ö":{"ha":946,"x_min":89,"x_max":856,"o":"m 472 -18 q 351 -5 406 -18 q 247 42 297 8 q 164 132 197 76 q 89 488 89 253 q 203 892 89 783 q 323 967 258 944 q 472 989 388 989 q 622 967 557 989 q 742 892 686 944 q 856 488 856 783 q 697 42 856 150 q 472 -18 608 -18 m 335 163 q 349 152 335 163 q 394 134 363 142 q 489 126 425 126 q 594 150 553 126 q 686 483 686 201 q 675 671 686 600 q 635 781 664 742 q 570 832 607 819 q 472 844 533 844 q 375 832 411 844 q 310 781 339 819 q 271 671 282 742 q 260 495 260 600 q 268 326 260 390 q 292 223 276 263 q 335 163 307 183 m 244 1061 l 244 1190 l 413 1190 l 413 1061 l 244 1061 m 540 1061 l 540 1190 l 707 1190 l 707 1061 l 540 1061 z "},"×":{"ha":815,"x_min":65,"x_max":750,"o":"m 163 67 l 65 165 l 310 410 l 67 653 l 163 750 l 406 506 l 653 753 l 750 654 l 504 408 l 747 165 l 651 68 l 408 311 l 163 67 z "},"Ø":{"ha":946,"x_min":89,"x_max":856,"o":"m 203 892 q 323 967 258 944 q 474 989 388 989 q 631 961 561 989 l 653 1013 l 786 1013 l 732 899 q 856 488 856 782 q 697 42 856 150 q 472 -18 608 -18 q 317 7 382 -18 l 289 -54 l 154 -54 l 214 68 q 89 486 89 189 q 203 892 89 783 m 376 139 q 485 126 418 126 q 594 150 553 126 q 686 483 686 201 q 656 739 686 661 l 521 456 l 376 139 m 571 829 q 463 844 535 844 q 350 819 392 844 q 260 483 260 768 q 292 229 260 308 l 401 454 l 571 829 z "},"Ù":{"ha":950,"x_min":135,"x_max":815,"o":"m 135 424 l 135 971 l 297 971 l 297 461 q 313 240 297 310 q 364 147 329 169 q 476 126 399 125 q 587 148 553 126 q 637 239 621 169 q 653 461 653 308 l 653 971 l 815 971 l 815 436 q 726 75 815 172 q 621 3 681 24 q 475 -18 561 -18 q 219 79 303 -18 q 135 424 135 176 m 257 1108 l 293 1231 l 653 1124 l 626 1032 l 257 1108 z "},"Ú":{"ha":950,"x_min":135,"x_max":815,"o":"m 135 424 l 135 971 l 297 971 l 297 461 q 313 240 297 310 q 364 147 329 169 q 476 126 399 125 q 587 148 553 126 q 637 239 621 169 q 653 461 653 308 l 653 971 l 815 971 l 815 436 q 726 75 815 172 q 621 3 681 24 q 475 -18 561 -18 q 219 79 303 -18 q 135 424 135 176 m 326 1031 l 301 1122 l 657 1232 l 696 1108 l 326 1031 z "},"Û":{"ha":950,"x_min":135,"x_max":815,"o":"m 135 424 l 135 971 l 297 971 l 297 461 q 313 240 297 310 q 364 147 329 169 q 476 126 399 125 q 587 148 553 126 q 637 239 621 169 q 653 461 653 308 l 653 971 l 815 971 l 815 436 q 726 75 815 172 q 621 3 681 24 q 475 -18 561 -18 q 219 79 303 -18 q 135 424 135 176 m 279 1025 l 236 1092 l 433 1228 l 518 1228 l 715 1092 l 672 1025 l 481 1108 l 471 1108 l 279 1025 z "},"Ü":{"ha":950,"x_min":135,"x_max":815,"o":"m 135 424 l 135 971 l 297 971 l 297 461 q 313 240 297 310 q 364 147 329 169 q 476 126 399 125 q 587 148 553 126 q 637 239 621 169 q 653 461 653 308 l 653 971 l 815 971 l 815 436 q 726 75 815 172 q 621 3 681 24 q 475 -18 561 -18 q 219 79 303 -18 q 135 424 135 176 m 244 1058 l 244 1189 l 411 1189 l 411 1058 l 244 1058 m 540 1058 l 540 1189 l 707 1189 l 707 1058 l 540 1058 z "},"Ý":{"ha":760,"x_min":4,"x_max":746,"o":"m 292 0 l 296 356 l 4 971 l 181 971 l 371 489 l 378 489 l 569 971 l 746 971 l 454 356 l 457 0 l 292 0 m 233 1031 l 208 1122 l 564 1232 l 603 1108 l 233 1031 z "},"Þ":{"ha":856,"x_min":132,"x_max":778,"o":"m 138 476 l 132 971 l 294 971 l 294 849 q 483 857 414 857 q 701 773 625 857 q 778 525 778 689 q 675 247 778 326 q 451 179 585 179 l 294 186 l 294 0 l 132 0 l 138 476 m 293 331 q 472 317 381 317 q 586 357 563 317 q 610 539 610 397 q 567 707 610 681 q 455 728 542 728 q 293 717 368 728 l 293 331 z "},"ß":{"ha":896,"x_min":135,"x_max":796,"o":"m 135 0 l 135 658 q 222 906 135 824 q 438 989 310 989 q 656 920 567 989 q 746 726 746 851 q 707 588 746 639 q 621 521 668 538 l 621 513 q 796 276 796 469 q 714 58 796 133 q 504 -18 632 -18 q 393 -7 454 -18 l 410 117 q 503 111 443 111 q 595 149 564 111 q 626 276 626 186 q 588 408 626 367 q 458 449 549 449 l 426 449 l 426 568 q 551 609 515 575 q 586 719 586 643 q 440 864 586 864 q 331 817 365 864 q 297 667 297 771 l 297 0 l 135 0 z "},"à":{"ha":817,"x_min":64,"x_max":696,"o":"m 300 -18 q 128 49 193 -18 q 64 251 64 117 q 151 446 64 385 q 401 507 238 507 l 535 506 q 513 669 535 640 q 429 697 492 697 q 290 682 367 697 q 126 635 213 667 l 83 753 q 135 774 103 761 q 257 809 168 788 q 419 831 346 831 q 696 531 696 831 l 696 0 l 593 0 l 571 88 l 564 88 q 523 58 549 75 q 427 11 497 40 q 300 -18 357 -18 m 535 375 q 381 383 478 383 q 260 360 283 383 q 229 253 229 332 q 249 147 229 175 q 315 118 269 118 q 415 134 360 118 q 535 181 469 150 l 535 375 m 204 1001 l 249 1129 l 613 1000 l 582 906 l 204 1001 z "},"á":{"ha":817,"x_min":64,"x_max":696,"o":"m 300 -18 q 128 49 193 -18 q 64 251 64 117 q 151 446 64 385 q 401 507 238 507 l 535 506 q 513 669 535 640 q 429 697 492 697 q 290 682 367 697 q 126 635 213 667 l 83 753 q 135 774 103 761 q 257 809 168 788 q 419 831 346 831 q 696 531 696 831 l 696 0 l 593 0 l 571 88 l 564 88 q 523 58 549 75 q 427 11 497 40 q 300 -18 357 -18 m 535 375 q 381 383 478 383 q 260 360 283 383 q 229 253 229 332 q 249 147 229 175 q 315 118 269 118 q 415 134 360 118 q 535 181 469 150 l 535 375 m 235 906 l 204 1000 l 568 1129 l 613 1001 l 235 906 z "},"â":{"ha":817,"x_min":64,"x_max":696,"o":"m 300 -18 q 128 49 193 -18 q 64 251 64 117 q 151 446 64 385 q 401 507 238 507 l 535 506 q 513 669 535 640 q 429 697 492 697 q 290 682 367 697 q 126 635 213 667 l 83 753 q 135 774 103 761 q 257 809 168 788 q 419 831 346 831 q 696 531 696 831 l 696 0 l 593 0 l 571 88 l 564 88 q 523 58 549 75 q 427 11 497 40 q 300 -18 357 -18 m 535 375 q 381 383 478 383 q 260 360 283 383 q 229 253 229 332 q 249 147 229 175 q 315 118 269 118 q 415 134 360 118 q 535 181 469 150 l 535 375 m 208 899 l 163 968 l 365 1117 l 450 1117 l 654 968 l 606 899 l 413 994 l 403 994 l 208 899 z "},"ã":{"ha":817,"x_min":64,"x_max":696,"o":"m 300 -18 q 128 49 193 -18 q 64 251 64 117 q 151 446 64 385 q 401 507 238 507 l 535 506 q 513 669 535 640 q 429 697 492 697 q 290 682 367 697 q 126 635 213 667 l 83 753 q 135 774 103 761 q 257 809 168 788 q 419 831 346 831 q 696 531 696 831 l 696 0 l 593 0 l 571 88 l 564 88 q 523 58 549 75 q 427 11 497 40 q 300 -18 357 -18 m 535 375 q 381 383 478 383 q 260 360 283 383 q 229 253 229 332 q 249 147 229 175 q 315 118 269 118 q 415 134 360 118 q 535 181 469 150 l 535 375 m 265 1092 q 419 1062 307 1092 q 540 1032 531 1032 q 581 1090 558 1032 l 668 1078 q 554 918 667 918 q 401 949 514 918 q 278 981 288 981 q 236 921 258 981 l 149 932 q 265 1092 150 1092 z "},"ä":{"ha":817,"x_min":64,"x_max":696,"o":"m 300 -18 q 128 49 193 -18 q 64 251 64 117 q 151 446 64 385 q 401 507 238 507 l 535 506 q 513 669 535 640 q 429 697 492 697 q 290 682 367 697 q 126 635 213 667 l 83 753 q 135 774 103 761 q 257 809 168 788 q 419 831 346 831 q 696 531 696 831 l 696 0 l 593 0 l 571 88 l 564 88 q 523 58 549 75 q 427 11 497 40 q 300 -18 357 -18 m 535 375 q 381 383 478 383 q 260 360 283 383 q 229 253 229 332 q 249 147 229 175 q 315 118 269 118 q 415 134 360 118 q 535 181 469 150 l 535 375 m 176 940 l 176 1069 l 349 1069 l 349 940 l 176 940 m 469 940 l 469 1069 l 640 1069 l 640 940 l 469 940 z "},"å":{"ha":817,"x_min":64,"x_max":696,"o":"m 300 -18 q 128 49 193 -18 q 64 251 64 117 q 151 446 64 385 q 401 507 238 507 l 535 506 q 513 669 535 640 q 429 697 492 697 q 290 682 367 697 q 126 635 213 667 l 83 753 q 135 774 103 761 q 257 809 168 788 q 419 831 346 831 q 696 531 696 831 l 696 0 l 593 0 l 571 88 l 564 88 q 523 58 549 75 q 427 11 497 40 q 300 -18 357 -18 m 535 375 q 381 383 478 383 q 260 360 283 383 q 229 253 229 332 q 249 147 229 175 q 315 118 269 118 q 415 134 360 118 q 535 181 469 150 l 535 375 m 261 1015 q 391 1140 261 1140 q 521 1015 521 1140 q 484 920 521 949 q 392 892 447 892 q 299 920 336 892 q 261 1015 261 949 m 391 1067 q 377 1067 391 1067 q 351 1056 363 1067 q 339 1016 339 1046 q 351 975 339 986 q 391 964 364 964 q 430 975 418 964 q 442 1016 442 986 q 431 1056 442 1046 q 391 1067 419 1067 z "},"æ":{"ha":1276,"x_min":79,"x_max":1196,"o":"m 313 -18 q 142 49 206 -18 q 79 247 79 117 q 169 435 79 378 q 422 492 258 492 l 550 492 q 529 667 550 636 q 444 697 508 697 q 304 682 379 697 q 142 635 229 667 l 99 754 q 256 806 160 782 q 422 831 351 831 q 649 742 579 831 l 654 742 q 890 831 738 831 q 1119 744 1043 831 q 1196 456 1196 657 l 1196 358 l 714 358 q 757 150 714 192 q 805 120 781 126 q 874 114 829 114 q 985 128 919 114 q 1138 171 1051 142 l 1178 49 q 1038 2 1119 22 q 890 -18 957 -18 q 625 99 707 -18 l 619 99 q 465 14 554 46 q 313 -18 376 -18 m 550 361 q 401 369 497 369 q 275 347 306 369 q 244 250 244 325 q 268 147 244 175 q 339 118 292 118 q 519 164 425 118 l 550 179 l 550 361 m 893 699 q 750 650 783 699 q 714 479 717 601 l 1032 485 q 1003 664 1032 638 q 893 699 964 699 z "},"ç":{"ha":742,"x_min":86,"x_max":696,"o":"m 279 -131 q 377 -137 342 -137 q 427 -129 413 -137 q 442 -89 442 -121 q 432 -18 442 -57 q 179 85 272 -18 q 86 408 86 188 q 197 746 86 650 q 461 831 297 831 q 675 804 569 831 l 657 678 q 425 697 506 697 q 311 664 344 697 q 253 397 253 601 q 332 135 253 193 q 408 114 361 114 q 514 131 454 114 q 649 179 574 147 l 696 61 q 533 -7 633 15 q 549 -103 549 -65 q 506 -209 549 -169 q 390 -249 463 -249 q 279 -236 349 -249 l 279 -131 z "},"è":{"ha":818,"x_min":86,"x_max":739,"o":"m 433 -18 q 86 406 86 -18 q 431 831 86 831 q 662 742 585 831 q 739 447 739 653 l 739 347 l 254 347 q 307 144 254 193 q 400 114 342 114 q 638 156 513 114 l 681 171 l 719 49 q 433 -18 583 -18 m 575 517 q 574 553 575 525 q 571 588 572 582 q 566 616 569 594 q 558 642 563 638 q 545 661 553 647 q 528 678 538 675 q 506 689 518 682 q 431 699 486 699 q 341 686 376 699 q 287 642 306 674 q 263 572 268 610 q 256 468 257 535 l 575 475 l 575 517 m 206 1001 l 250 1129 l 614 1000 l 583 906 l 206 1001 z "},"é":{"ha":818,"x_min":86,"x_max":739,"o":"m 433 -18 q 86 406 86 -18 q 431 831 86 831 q 662 742 585 831 q 739 447 739 653 l 739 347 l 254 347 q 307 144 254 193 q 400 114 342 114 q 638 156 513 114 l 681 171 l 719 49 q 433 -18 583 -18 m 575 517 q 574 553 575 525 q 571 588 572 582 q 566 616 569 594 q 558 642 563 638 q 545 661 553 647 q 528 678 538 675 q 506 689 518 682 q 431 699 486 699 q 341 686 376 699 q 287 642 306 674 q 263 572 268 610 q 256 468 257 535 l 575 475 l 575 517 m 236 906 l 206 1000 l 569 1129 l 614 1001 l 236 906 z "},"ê":{"ha":818,"x_min":86,"x_max":739,"o":"m 433 -18 q 86 406 86 -18 q 431 831 86 831 q 662 742 585 831 q 739 447 739 653 l 739 347 l 254 347 q 307 144 254 193 q 400 114 342 114 q 638 156 513 114 l 681 171 l 719 49 q 433 -18 583 -18 m 575 517 q 574 553 575 525 q 571 588 572 582 q 566 616 569 594 q 558 642 563 638 q 545 661 553 647 q 528 678 538 675 q 506 689 518 682 q 431 699 486 699 q 341 686 376 699 q 287 642 306 674 q 263 572 268 610 q 256 468 257 535 l 575 475 l 575 517 m 208 899 l 163 968 l 365 1117 l 450 1117 l 654 968 l 606 899 l 413 994 l 403 994 l 208 899 z "},"ë":{"ha":818,"x_min":86,"x_max":739,"o":"m 433 -18 q 86 406 86 -18 q 431 831 86 831 q 662 742 585 831 q 739 447 739 653 l 739 347 l 254 347 q 307 144 254 193 q 400 114 342 114 q 638 156 513 114 l 681 171 l 719 49 q 433 -18 583 -18 m 575 517 q 574 553 575 525 q 571 588 572 582 q 566 616 569 594 q 558 642 563 638 q 545 661 553 647 q 528 678 538 675 q 506 689 518 682 q 431 699 486 699 q 341 686 376 699 q 287 642 306 674 q 263 572 268 610 q 256 468 257 535 l 575 475 l 575 517 m 176 940 l 176 1069 l 349 1069 l 349 940 l 176 940 m 469 940 l 469 1069 l 640 1069 l 640 940 l 469 940 z "},"ì":{"ha":431,"x_min":-12,"x_max":382,"o":"m -12 1000 l 32 1129 l 382 1000 l 351 906 l -12 1000 m 135 0 l 135 813 l 296 813 l 296 0 l 135 0 z "},"í":{"ha":431,"x_min":31,"x_max":425,"o":"m 61 906 l 31 1000 l 381 1129 l 425 1000 l 61 906 m 135 0 l 135 813 l 296 813 l 296 0 l 135 0 z "},"î":{"ha":431,"x_min":-18,"x_max":449,"o":"m 28 901 l -18 972 l 172 1117 l 257 1117 l 449 972 l 400 901 l 219 994 l 210 994 l 28 901 m 135 0 l 135 813 l 296 813 l 296 0 l 135 0 z "},"ï":{"ha":431,"x_min":1,"x_max":428,"o":"m 1 940 l 1 1069 l 169 1069 l 169 940 l 1 940 m 261 940 l 261 1069 l 428 1069 l 428 940 l 261 940 m 135 0 l 135 813 l 296 813 l 296 0 l 135 0 z "},"ð":{"ha":838,"x_min":90,"x_max":746,"o":"m 408 917 l 322 981 l 406 1069 q 539 982 478 1031 l 682 1058 l 692 946 l 613 904 q 746 454 739 757 q 744 376 746 401 q 662 83 738 183 q 417 -18 586 -18 q 90 369 90 -18 q 165 628 90 532 q 404 724 240 724 q 594 667 511 724 l 601 671 q 489 843 572 760 l 335 768 l 324 878 l 408 917 m 253 358 q 253 286 253 358 q 288 162 253 214 q 419 110 322 110 q 549 162 515 110 q 582 358 582 214 q 547 548 582 501 q 419 594 513 594 q 289 548 325 594 q 253 358 253 501 z "},"ñ":{"ha":861,"x_min":129,"x_max":750,"o":"m 129 0 l 129 813 l 235 813 l 253 732 l 260 732 q 548 831 431 831 q 708 754 665 831 q 750 536 750 678 l 750 0 l 589 0 l 589 496 q 573 652 589 619 q 503 685 557 685 q 387 663 449 685 q 290 618 325 640 l 290 0 l 129 0 m 288 1092 q 440 1062 328 1092 q 563 1032 553 1032 q 603 1090 581 1032 l 690 1078 q 576 918 689 918 q 423 949 536 918 q 300 981 310 981 q 258 921 281 981 l 171 932 q 288 1092 172 1092 z "},"ò":{"ha":831,"x_min":86,"x_max":744,"o":"m 744 406 q 744 301 744 406 q 669 90 744 197 q 416 -18 594 -18 q 162 90 238 -18 q 86 406 86 197 q 162 722 86 614 q 416 831 238 831 q 669 722 594 831 q 744 406 744 614 m 287 167 q 304 139 287 167 q 417 110 321 110 q 546 167 513 110 q 579 406 579 225 q 546 644 579 588 q 417 701 513 701 q 287 644 321 701 q 253 406 253 588 q 287 167 253 225 m 211 1001 l 256 1129 l 619 1000 l 589 906 l 211 1001 z "},"ó":{"ha":831,"x_min":86,"x_max":744,"o":"m 744 406 q 744 301 744 406 q 669 90 744 197 q 416 -18 594 -18 q 162 90 238 -18 q 86 406 86 197 q 162 722 86 614 q 416 831 238 831 q 669 722 594 831 q 744 406 744 614 m 287 167 q 304 139 287 167 q 417 110 321 110 q 546 167 513 110 q 579 406 579 225 q 546 644 579 588 q 417 701 513 701 q 287 644 321 701 q 253 406 253 588 q 287 167 253 225 m 242 906 l 211 1000 l 575 1129 l 619 1001 l 242 906 z "},"ô":{"ha":831,"x_min":86,"x_max":744,"o":"m 744 406 q 744 301 744 406 q 669 90 744 197 q 416 -18 594 -18 q 162 90 238 -18 q 86 406 86 197 q 162 722 86 614 q 416 831 238 831 q 669 722 594 831 q 744 406 744 614 m 287 167 q 304 139 287 167 q 417 110 321 110 q 546 167 513 110 q 579 406 579 225 q 546 644 579 588 q 417 701 513 701 q 287 644 321 701 q 253 406 253 588 q 287 167 253 225 m 215 899 l 169 968 l 372 1117 l 457 1117 l 661 968 l 613 899 l 419 994 l 410 994 l 215 899 z "},"õ":{"ha":831,"x_min":86,"x_max":744,"o":"m 744 406 q 744 301 744 406 q 669 90 744 197 q 416 -18 594 -18 q 162 90 238 -18 q 86 406 86 197 q 162 722 86 614 q 416 831 238 831 q 669 722 594 831 q 744 406 744 614 m 287 167 q 304 139 287 167 q 417 110 321 110 q 546 167 513 110 q 579 406 579 225 q 546 644 579 588 q 417 701 513 701 q 287 644 321 701 q 253 406 253 588 q 287 167 253 225 m 272 1092 q 425 1062 314 1092 q 547 1032 536 1032 q 588 1090 565 1032 l 675 1078 q 561 918 674 918 q 408 949 521 918 q 285 981 294 981 q 243 921 265 981 l 156 932 q 272 1092 157 1092 z "},"ö":{"ha":831,"x_min":86,"x_max":744,"o":"m 744 406 q 744 301 744 406 q 669 90 744 197 q 416 -18 594 -18 q 162 90 238 -18 q 86 406 86 197 q 162 722 86 614 q 416 831 238 831 q 669 722 594 831 q 744 406 744 614 m 287 167 q 304 139 287 167 q 417 110 321 110 q 546 167 513 110 q 579 406 579 225 q 546 644 579 588 q 417 701 513 701 q 287 644 321 701 q 253 406 253 588 q 287 167 253 225 m 183 940 l 183 1069 l 356 1069 l 356 940 l 183 940 m 476 940 l 476 1069 l 647 1069 l 647 940 l 476 940 z "},"÷":{"ha":883,"x_min":61,"x_max":822,"o":"m 61 338 l 61 475 l 822 475 l 822 338 l 61 338 m 344 39 l 344 190 l 538 190 l 538 39 l 344 39 m 344 624 l 344 776 l 538 776 l 538 624 l 344 624 z "},"ø":{"ha":832,"x_min":88,"x_max":744,"o":"m 183 68 q 88 391 88 168 q 163 722 88 614 q 417 831 239 831 q 535 814 485 831 l 561 871 l 685 871 l 632 763 q 744 406 744 664 q 669 90 744 197 q 417 -18 594 -18 q 276 8 338 -18 l 249 -53 l 125 -53 l 183 68 m 481 694 q 406 701 458 701 q 319 679 353 701 q 270 594 286 657 q 254 410 254 531 q 264 231 254 289 l 369 450 l 481 694 m 417 110 q 545 167 513 110 q 578 385 578 224 q 556 607 578 546 l 332 126 q 417 110 357 110 z "},"ù":{"ha":860,"x_min":111,"x_max":731,"o":"m 111 276 l 111 813 l 272 813 l 272 308 q 290 149 272 175 q 361 125 310 125 q 569 192 444 125 l 569 813 l 731 813 l 731 0 l 625 0 l 606 81 l 599 81 q 567 63 597 79 q 526 40 538 46 q 483 20 514 35 q 432 0 453 6 q 326 -18 374 -18 q 111 276 111 -18 m 225 1001 l 269 1129 l 633 1000 l 603 906 l 225 1001 z "},"ú":{"ha":860,"x_min":111,"x_max":731,"o":"m 111 276 l 111 813 l 272 813 l 272 308 q 290 149 272 175 q 361 125 310 125 q 569 192 444 125 l 569 813 l 731 813 l 731 0 l 625 0 l 606 81 l 599 81 q 567 63 597 79 q 526 40 538 46 q 483 20 514 35 q 432 0 453 6 q 326 -18 374 -18 q 111 276 111 -18 m 257 906 l 226 1000 l 590 1129 l 635 1001 l 257 906 z "},"û":{"ha":860,"x_min":111,"x_max":731,"o":"m 111 276 l 111 813 l 272 813 l 272 308 q 290 149 272 175 q 361 125 310 125 q 569 192 444 125 l 569 813 l 731 813 l 731 0 l 625 0 l 606 81 l 599 81 q 567 63 597 79 q 526 40 538 46 q 483 20 514 35 q 432 0 453 6 q 326 -18 374 -18 q 111 276 111 -18 m 229 899 l 183 968 l 386 1117 l 471 1117 l 675 968 l 626 899 l 433 994 l 424 994 l 229 899 z "},"ü":{"ha":860,"x_min":111,"x_max":731,"o":"m 111 276 l 111 813 l 272 813 l 272 308 q 290 149 272 175 q 361 125 310 125 q 569 192 444 125 l 569 813 l 731 813 l 731 0 l 625 0 l 606 81 l 599 81 q 567 63 597 79 q 526 40 538 46 q 483 20 514 35 q 432 0 453 6 q 326 -18 374 -18 q 111 276 111 -18 m 197 940 l 197 1069 l 369 1069 l 369 940 l 197 940 m 490 940 l 490 1069 l 661 1069 l 661 940 l 490 940 z "},"ý":{"ha":693,"x_min":-7,"x_max":690,"o":"m 163 -231 l 276 75 l -7 813 l 172 813 l 344 240 l 351 240 l 521 813 l 690 813 l 406 47 l 329 -231 l 163 -231 m 174 906 l 143 1000 l 507 1129 l 551 1001 l 174 906 z "},"þ":{"ha":851,"x_min":133,"x_max":764,"o":"m 293 135 q 458 115 400 115 q 540 136 517 115 q 599 425 599 185 q 590 602 599 569 q 578 649 581 635 q 565 672 575 663 q 551 685 556 681 q 534 692 547 690 q 515 695 521 694 q 493 695 510 696 q 453 694 476 694 q 293 667 393 694 l 293 135 m 133 -231 l 133 1051 l 293 1051 l 293 804 q 488 831 411 831 q 694 730 625 831 q 764 413 764 629 q 456 -18 764 -18 q 293 0 407 -18 l 293 -231 l 133 -231 z "},"ÿ":{"ha":693,"x_min":-7,"x_max":690,"o":"m 163 -231 l 276 75 l -7 813 l 172 813 l 344 240 l 351 240 l 521 813 l 690 813 l 406 47 l 329 -231 l 163 -231 m 115 940 l 115 1069 l 288 1069 l 288 940 l 115 940 m 408 940 l 408 1069 l 579 1069 l 579 940 l 408 940 z "},"ħ":{"ha":860,"x_min":11,"x_max":749,"o":"m 124 0 l 124 892 l 11 892 l 11 1003 l 124 1003 l 124 1051 l 285 1051 l 285 1003 l 535 1003 l 535 892 l 285 892 l 285 761 q 547 832 439 832 q 702 758 656 832 q 749 536 749 683 l 749 0 l 588 0 l 588 497 q 568 651 588 615 q 490 688 549 688 q 403 674 454 688 q 285 633 351 661 l 285 0 l 124 0 z "},"Ĩ":{"ha":435,"x_min":-10,"x_max":444,"o":"m 99 1208 q 222 1178 136 1208 q 318 1147 308 1147 q 338 1161 328 1147 q 357 1204 347 1175 l 444 1192 q 338 1036 443 1036 q 213 1068 300 1036 q 117 1100 126 1100 q 78 1042 100 1100 l -10 1053 q 99 1208 -8 1208 m 299 0 l 135 -1 l 140 446 l 135 971 l 299 971 l 293 540 l 299 0 z "},"ĩ":{"ha":431,"x_min":-29,"x_max":435,"o":"m 72 1092 q 207 1063 108 1092 q 314 1035 306 1035 q 344 1090 331 1035 l 435 1078 q 336 918 433 918 q 201 948 300 918 q 93 978 101 978 q 61 921 78 978 l -29 932 q 72 1092 -28 1092 m 135 0 l 135 813 l 296 813 l 296 0 l 135 0 z "},"ı":{"ha":431,"x_min":135,"x_max":296,"o":"m 135 0 l 135 813 l 296 813 l 296 0 l 135 0 z "},"Ĳ":{"ha":883,"x_min":135,"x_max":754,"o":"m 299 0 l 135 -1 l 140 446 l 135 971 l 299 971 l 293 540 l 299 0 m 408 132 q 501 121 457 121 q 558 133 544 121 q 593 324 593 160 l 593 971 l 754 971 l 754 335 q 501 -18 754 -18 q 390 -6 456 -18 l 408 132 z "},"ĳ":{"ha":849,"x_min":122,"x_max":726,"o":"m 138 0 l 138 813 l 297 813 l 297 0 l 138 0 m 376 -103 q 478 -111 431 -111 q 540 -78 526 -111 q 553 83 553 -46 l 553 808 l 713 808 l 713 85 q 468 -247 713 -247 l 360 -237 l 376 -103 m 122 921 l 122 1051 l 310 1051 l 310 921 l 122 921 m 539 921 l 539 1051 l 726 1051 l 726 921 l 539 921 z "},"Ĵ":{"ha":460,"x_min":-18,"x_max":485,"o":"m 0 132 q 92 121 49 121 q 150 133 136 121 q 185 324 185 160 l 185 971 l 346 971 l 346 335 q 93 -18 346 -18 q -18 -6 47 -18 l 0 132 m 81 1029 l 40 1100 l 221 1228 l 306 1228 l 485 1100 l 444 1029 l 268 1108 l 258 1108 l 81 1029 z "},"ĵ":{"ha":454,"x_min":-35,"x_max":469,"o":"m 43 901 l -3 972 l 190 1117 l 275 1117 l 469 972 l 421 901 l 238 994 l 228 994 l 43 901 m -17 -103 q 85 -111 38 -111 q 146 -78 132 -111 q 160 83 160 -46 l 160 813 l 319 813 l 319 85 q 253 -169 319 -92 q 79 -247 186 -247 l -35 -237 l -17 -103 z "},"ķ":{"ha":793,"x_min":114,"x_max":817,"o":"m 275 1046 l 275 0 l 114 0 l 121 446 l 114 1046 l 275 1046 m 622 0 l 276 436 l 599 808 l 792 808 l 449 443 l 449 436 l 817 0 l 622 0 m 336 -175 l 336 -76 l 482 -76 l 482 -90 q 342 -362 482 -287 l 283 -311 q 324 -256 313 -286 q 336 -175 336 -226 z "},"ĸ":{"ha":793,"x_min":129,"x_max":817,"o":"m 622 0 l 276 436 l 599 808 l 792 808 l 449 443 l 449 436 l 817 0 l 622 0 m 129 0 l 129 808 l 240 808 l 276 703 l 276 0 l 129 0 z "},"Ŀ":{"ha":649,"x_min":135,"x_max":644,"o":"m 135 0 l 135 971 l 297 971 l 290 142 l 644 144 l 644 0 l 135 0 m 417 474 l 417 624 l 597 624 l 597 474 l 417 474 z "},"ŀ":{"ha":582,"x_min":114,"x_max":557,"o":"m 114 0 l 114 1051 l 274 1051 l 274 0 l 114 0 m 381 489 l 381 644 l 557 644 l 557 489 l 381 489 z "},"Ł":{"ha":644,"x_min":43,"x_max":644,"o":"m 135 0 l 135 351 l 43 294 l 43 425 l 135 482 l 135 971 l 297 971 l 293 579 l 510 718 l 510 586 l 293 447 l 290 142 l 644 144 l 644 0 l 135 0 z "},"ł":{"ha":453,"x_min":29,"x_max":424,"o":"m 150 0 l 150 433 l 29 358 l 29 490 l 150 565 l 150 1051 l 310 1051 l 310 667 l 424 739 l 424 604 l 310 533 l 310 0 l 150 0 z "},"Ń":{"ha":971,"x_min":135,"x_max":838,"o":"m 135 0 l 135 971 l 347 971 l 696 188 l 703 188 l 683 971 l 838 971 l 838 0 l 625 0 l 278 782 l 271 782 l 289 0 l 135 0 m 360 1031 l 333 1122 l 689 1232 l 728 1108 l 360 1031 z "},"ń":{"ha":861,"x_min":129,"x_max":750,"o":"m 129 0 l 129 813 l 235 813 l 253 732 l 260 732 q 548 831 431 831 q 708 754 665 831 q 750 536 750 678 l 750 0 l 589 0 l 589 496 q 573 652 589 619 q 503 685 557 685 q 387 663 449 685 q 290 618 325 640 l 290 0 l 129 0 m 276 906 l 246 1000 l 610 1129 l 654 1001 l 276 906 z "},"Œ":{"ha":1307,"x_min":89,"x_max":1224,"o":"m 699 0 l 699 57 l 693 57 q 472 -18 603 -18 q 164 132 256 -18 q 89 488 89 253 q 203 892 89 783 q 323 967 258 944 q 472 989 388 989 q 693 915 606 989 l 699 915 l 699 971 l 1224 971 l 1224 828 l 860 832 l 854 561 l 1189 561 l 1189 424 l 854 424 l 860 139 l 1224 142 l 1224 0 l 699 0 m 335 163 q 349 152 335 163 q 394 134 363 142 q 489 126 425 126 q 594 150 553 126 q 686 483 686 201 q 675 671 686 600 q 635 781 664 742 q 570 832 607 819 q 472 844 533 844 q 375 832 411 844 q 310 781 339 819 q 271 671 282 742 q 260 495 260 600 q 268 326 260 390 q 292 223 276 263 q 335 163 307 183 z "},"œ":{"ha":1313,"x_min":86,"x_max":1233,"o":"m 667 90 q 412 -18 586 -18 q 162 90 238 -18 q 86 406 86 197 q 162 722 86 614 q 413 831 238 831 q 667 721 588 831 l 672 721 q 917 831 756 831 q 1156 742 1079 831 q 1233 447 1233 653 l 1233 347 l 749 347 q 801 144 749 193 q 894 114 836 114 q 1132 156 1007 114 l 1175 171 l 1214 49 q 917 -18 1078 -18 q 672 90 757 -18 l 667 90 m 287 167 q 304 139 287 167 q 417 110 321 110 q 546 167 513 110 q 579 406 579 225 q 546 644 579 588 q 417 701 513 701 q 287 644 321 701 q 253 406 253 588 q 287 167 253 225 m 750 468 l 1069 475 q 1054 640 1068 606 q 931 699 1026 699 q 835 686 871 699 q 781 642 800 674 q 757 572 763 610 q 750 468 751 535 z "},"Ŕ":{"ha":926,"x_min":135,"x_max":831,"o":"m 472 989 q 807 676 807 989 q 604 389 807 446 l 604 382 l 831 0 l 640 0 l 451 367 l 299 372 l 299 0 l 135 0 l 142 456 l 138 969 q 472 989 293 989 m 297 511 q 490 499 407 499 q 605 540 572 499 q 638 687 638 581 q 604 831 638 793 q 484 861 575 861 q 299 849 393 861 l 297 511 m 300 1028 l 272 1118 l 625 1239 l 667 1118 l 300 1028 z "},"Ŗ":{"ha":926,"x_min":135,"x_max":831,"o":"m 472 989 q 807 676 807 989 q 604 389 807 446 l 604 382 l 831 0 l 640 0 l 451 367 l 299 372 l 299 0 l 135 0 l 142 456 l 138 969 q 472 989 293 989 m 297 511 q 490 499 407 499 q 605 540 572 499 q 638 687 638 581 q 604 831 638 793 q 484 861 575 861 q 299 849 393 861 l 297 511 m 374 -175 l 374 -76 l 519 -76 l 519 -90 q 379 -362 519 -287 l 321 -311 q 362 -256 350 -286 q 374 -175 374 -226 z "},"ŗ":{"ha":578,"x_min":83,"x_max":556,"o":"m 136 -175 l 136 -76 l 282 -76 l 282 -90 q 142 -362 282 -287 l 83 -311 q 124 -256 113 -286 q 136 -175 136 -226 m 376 799 q 409 815 376 799 q 482 831 442 831 q 556 819 522 831 l 543 675 q 481 678 508 678 q 290 617 376 678 l 290 0 l 129 0 l 129 813 l 231 813 l 251 728 l 260 728 q 376 799 310 768 z "},"Ř":{"ha":926,"x_min":135,"x_max":831,"o":"m 472 989 q 807 676 807 989 q 604 389 807 446 l 604 382 l 831 0 l 640 0 l 451 367 l 299 372 l 299 0 l 135 0 l 142 456 l 138 969 q 472 989 293 989 m 297 511 q 490 499 407 499 q 605 540 572 499 q 638 687 638 581 q 604 831 638 793 q 484 861 575 861 q 299 849 393 861 l 297 511 m 211 1176 l 254 1243 l 446 1160 l 456 1160 l 647 1243 l 690 1176 l 493 1042 l 408 1042 l 211 1176 z "},"ř":{"ha":578,"x_min":86,"x_max":565,"o":"m 376 799 q 409 815 376 799 q 482 831 442 831 q 556 819 522 831 l 543 675 q 481 678 508 678 q 290 617 376 678 l 290 0 l 129 0 l 129 813 l 231 813 q 251 728 243 747 l 260 728 q 376 799 310 768 m 86 1067 l 129 1131 l 321 1036 l 331 1036 l 522 1131 l 565 1067 l 368 918 l 283 918 l 86 1067 z "},"ȷ":{"ha":454,"x_min":-35,"x_max":319,"o":"m -17 -103 q 85 -111 38 -111 q 146 -78 132 -111 q 160 83 160 -46 l 160 813 l 319 813 l 319 85 q 253 -169 319 -92 q 79 -247 186 -247 l -35 -237 l -17 -103 z "},"ˆ":{"ha":758,"x_min":135,"x_max":626,"o":"m 181 899 l 135 968 l 338 1117 l 422 1117 l 626 968 l 578 899 l 385 994 l 375 994 l 181 899 z "},"ˇ":{"ha":368,"x_min":-54,"x_max":425,"o":"m -54 1067 l -11 1131 l 181 1036 l 190 1036 l 382 1131 l 425 1067 l 228 918 l 143 918 l -54 1067 z "},"˚":{"ha":322,"x_min":31,"x_max":290,"o":"m 31 1015 q 160 1140 31 1140 q 290 1015 290 1140 q 253 920 290 949 q 161 892 217 892 q 68 920 106 892 q 31 1015 31 949 m 160 1067 q 146 1067 160 1067 q 120 1056 132 1067 q 108 1016 108 1046 q 121 975 108 986 q 160 964 133 964 q 199 975 188 964 q 211 1016 211 986 q 200 1056 211 1046 q 160 1067 189 1067 z "},"˜":{"ha":761,"x_min":121,"x_max":640,"o":"m 238 1092 q 390 1062 278 1092 q 513 1032 503 1032 q 553 1090 531 1032 l 640 1078 q 526 918 639 918 q 373 949 486 918 q 250 981 260 981 q 208 921 231 981 l 121 932 q 238 1092 122 1092 z "},"̇":{"ha":442,"x_min":138,"x_max":304,"o":"m 138 939 l 138 1069 l 304 1069 l 304 939 l 138 939 z "},"–":{"ha":818,"x_min":58,"x_max":760,"o":"m 760 522 l 760 386 l 58 386 l 60 522 l 760 522 z "},"—":{"ha":1144,"x_min":86,"x_max":1058,"o":"m 86 386 l 86 522 l 1058 522 l 1058 386 l 86 386 z "},"‘":{"ha":326,"x_min":76,"x_max":254,"o":"m 76 743 q 176 1022 76 925 l 254 969 q 215 811 215 907 l 224 646 l 82 646 q 76 743 76 685 z "},"’":{"ha":326,"x_min":76,"x_max":254,"o":"m 254 904 q 154 625 254 722 l 76 679 q 115 836 115 740 l 106 1003 l 249 1003 q 254 904 254 950 z "},"‚":{"ha":358,"x_min":78,"x_max":256,"o":"m 156 -192 l 78 -139 q 117 18 117 -79 l 108 185 l 249 185 q 256 86 256 136 q 156 -192 254 -99 z "},"“":{"ha":571,"x_min":72,"x_max":499,"o":"m 469 646 l 326 646 q 321 742 321 685 q 424 1013 322 911 l 499 964 q 461 810 461 906 l 469 646 m 72 743 q 172 1025 72 928 l 250 972 q 211 811 211 910 l 219 646 l 78 646 q 72 743 72 685 z "},"”":{"ha":571,"x_min":72,"x_max":500,"o":"m 250 907 q 147 635 250 738 l 72 685 q 110 839 110 740 l 101 1003 l 244 1003 q 250 907 250 964 m 500 904 q 400 622 500 719 l 322 676 q 361 836 361 738 l 351 1003 l 494 1003 q 500 904 500 950 z "},"„":{"ha":624,"x_min":75,"x_max":503,"o":"m 153 -192 l 75 -140 q 114 15 114 -83 l 106 183 l 246 183 q 253 85 253 135 q 153 -192 251 -101 m 503 83 q 404 -194 503 -104 l 326 -142 q 365 14 365 -85 l 357 183 l 497 183 q 503 83 503 144 z "},"•":{"ha":544,"x_min":86,"x_max":458,"o":"m 458 595 q 458 547 458 595 q 405 452 458 499 q 273 406 351 406 q 140 452 194 406 q 86 596 86 499 q 140 738 86 693 q 272 782 193 782 q 405 737 351 782 q 458 595 458 692 z "},"‹":{"ha":417,"x_min":44,"x_max":374,"o":"m 253 115 l 44 468 l 253 819 l 374 747 l 203 472 l 203 464 l 374 189 l 253 115 z "},"›":{"ha":417,"x_min":43,"x_max":372,"o":"m 43 189 l 214 464 l 214 472 l 43 747 l 165 819 l 372 468 l 165 115 l 43 189 z "},"€":{"ha":847,"x_min":53,"x_max":804,"o":"m 53 336 l 53 449 l 706 449 l 706 336 l 313 336 q 367 163 328 206 q 476 119 406 119 q 616 135 547 119 q 758 181 685 150 l 804 60 q 765 38 790 51 q 659 3 739 25 q 496 -18 579 -18 q 142 336 189 -18 l 53 336 m 53 532 l 53 644 l 143 644 q 265 914 171 839 q 510 989 360 989 q 771 961 660 989 l 754 826 q 514 844 579 844 q 363 809 399 844 q 313 644 328 774 l 706 644 l 706 532 l 53 532 z "}}}
